<?xml version="1.0" encoding="utf-8"?>
<!-- Generator: Adobe Illustrator 18.1.1, SVG Export Plug-In . SVG Version: 6.00 Build 0)  -->
<svg version="1.1" id="Layer_1" xmlns="http://www.w3.org/2000/svg" xmlns:xlink="http://www.w3.org/1999/xlink" x="0px" y="0px"
	 viewBox="0 58.8 2000.1 941.5" enable-background="new 0 58.8 2000.1 941.5" xml:space="preserve">
<g id="Layer_1_1_" display="none">
	<g display="inline">
		<path fill="#272822" d="M1992.8,58.8H7.2c-3.6,0-7.2,3.6-7.2,8.1v724.5c0,4.5,3.6,8.1,7.2,8.1H1661c1.8,0,3.6,0.9,5.4,2.7
			l178,195.9c4.5,4.5,12.5,1.8,12.5-5.4v-186c0-4.5,3.6-8.1,7.2-8.1h128.8c3.6,0,7.2-3.6,7.2-8.1V66
			C2000,62.4,1996.4,58.8,1992.8,58.8z"/>
		<g>
			<path fill="#F9F9F2" d="M56.4,158.1l50.1-25.9v7.2l-42,21.5l0,0l42,21.5v7.2l-50.1-25.9C56.4,163.5,56.4,158.1,56.4,158.1z"/>
			<path fill="#F9F9F2" d="M127.9,168.8v-2.7c-0.9-5.4,0.9-12.5,6.3-18.8c4.5-5.4,7.2-9.8,7.2-14.3c0-5.4-3.6-8.9-9.8-8.9
				c-3.6,0-8.1,0.9-10.7,3.6l-2.7-7.2c3.6-2.7,9.8-4.5,15.2-4.5c12.5,0,17.9,8.1,17.9,16.1c0,7.2-4.5,12.5-8.9,18.8
				c-4.5,5.4-6.3,10.7-6.3,16.1v2.7H128L127.9,168.8L127.9,168.8z M126.1,184c0-3.6,2.7-7.2,6.3-7.2c3.6,0,6.3,2.7,6.3,7.2
				c0,3.6-2.7,6.3-6.3,6.3C128.8,190.3,126.1,187.6,126.1,184z"/>
			<path fill="#F9F9F2" d="M164.6,154.5c0-6.3,0-11.6,0-17h8.1v8.9l0,0c3.6-6.3,9.8-9.8,18.8-9.8c12.5,0,22.4,10.7,22.4,26.8
				c0,18.8-11.6,27.7-23.3,27.7c-7.2,0-12.5-2.7-16.1-8.1l0,0v27.7h-8.9v-56.4h-1V154.5z M173.5,167.9c0,1.8,0,2.7,0,3.6
				c1.8,6.3,7.2,10.7,14.3,10.7c9.8,0,16.1-8.1,16.1-19.7c0-10.7-5.4-19.7-15.2-19.7c-6.3,0-12.5,4.5-14.3,11.6
				c0,0.9-0.9,2.7-0.9,3.6L173.5,167.9L173.5,167.9z"/>
			<path fill="#F9F9F2" d="M225.4,113.4h9.8v32.2l0,0c1.8-2.7,3.6-4.5,6.3-6.3s6.3-2.7,9.8-2.7c7.2,0,17.9,4.5,17.9,22.4v31.3h-9.8
				v-29.5c0-8.1-2.7-15.2-11.6-15.2c-6.3,0-10.7,4.5-12.5,9.8c-0.9,0.9-0.9,2.7-0.9,4.5v31.3h-9.8v-77.8H225.4z"/>
			<path fill="#F9F9F2" d="M285.3,154.5c0-6.3,0-11.6,0-17h8.1v8.9l0,0c3.6-6.3,9.8-9.8,18.8-9.8c12.5,0,22.4,10.7,22.4,26.8
				c0,18.8-11.6,27.7-23.3,27.7c-7.2,0-12.5-2.7-16.1-8.1l0,0v27.7h-8.9v-56.4h-1V154.5z M294.3,167.9c0,1.8,0,2.7,0,3.6
				c1.8,6.3,7.2,10.7,14.3,10.7c9.8,0,16.1-8.1,16.1-19.7c0-10.7-5.4-19.7-15.2-19.7c-6.3,0-12.5,4.5-14.3,11.6
				c0,0.9-0.9,2.7-0.9,3.6V167.9z"/>
			<path fill="#F9F9F2" d="M72.5,327.2v-10.7c-6.3,0-12.5-1.8-16.1-4.5l2.7-7.2c3.6,2.7,8.9,4.5,15.2,4.5c8.1,0,12.5-4.5,12.5-10.7
				c0-6.3-4.5-9.8-12.5-12.5c-10.7-4.5-17.9-8.9-17.9-18.8c0-8.9,6.3-16.1,16.1-17v-10.7h6.3v10.7c6.3,0,10.7,1.8,14.3,3.6l-2.7,7.2
				c-2.7-0.9-6.3-3.6-13.4-3.6c-8.1,0-11.6,5.4-11.6,8.9c0,5.4,3.6,8.1,13.4,12.5c10.7,4.5,17,9.8,17,19.7c0,8.1-6.3,16.1-17,17.9
				v10.7L72.5,327.2L72.5,327.2z"/>
			<path fill="#F9F9F2" d="M115.4,266.3l11.6,30.4c0.9,3.6,2.7,7.2,3.6,10.7l0,0c0.9-2.7,1.8-7.2,3.6-10.7l10.7-30.4h9.8L140.4,303
				c-7.2,17.9-11.6,26.8-17.9,32.2c-4.5,4.5-8.9,5.4-11.6,6.3l-2.7-8.1c2.7-0.9,5.4-2.7,8.1-4.5s5.4-5.4,8.1-10.7
				c0-0.9,0.9-1.8,0.9-2.7c0-0.9,0-0.9-0.9-2.7l-18.8-47.4h9.8C115.4,265.4,115.4,266.3,115.4,266.3z"/>
			<path fill="#F9F9F2" d="M208.4,292.3c0,18.8-13.4,27.7-25.9,27.7c-14.3,0-25-10.7-25-26.8c0-17,11.6-27.7,25.9-27.7
				C198.6,265.4,208.4,276.2,208.4,292.3z M167.3,292.3c0,11.6,6.3,19.7,16.1,19.7c8.9,0,16.1-8.1,16.1-20.6
				c0-8.9-4.5-19.7-15.2-19.7C171.7,272.6,167.3,282.4,167.3,292.3z"/>
			<path fill="#F9F9F2" d="M263.9,303.9c0,5.4,0,9.8,0,14.3h-8.1l-0.9-8.1l0,0c-2.7,4.5-8.1,9.8-17,9.8c-8.1,0-17.9-4.5-17.9-22.4
				v-30.4h9.8v28.6c0,9.8,2.7,16.1,11.6,16.1c6.3,0,10.7-4.5,12.5-8.9c0.9-1.8,0.9-2.7,0.9-4.5v-32.1h9.8v37.6H263.9z"/>
			<path fill="#EE2E73" d="M298.7,282.4v-6.3h55.5v6.3H298.7z M298.7,303v-6.3h55.5v6.3H298.7z"/>
			<path fill="#E7DB5A" d="M396.2,244.9l-1.8,25.9H389l-1.8-25.9H396.2z M412.3,244.9l-1.8,25.9h-5.4l-2.7-25.9H412.3z"/>
			<path fill="#E7DB5A" d="M424.9,242.2h9.8v76h-9.8V242.2z"/>
			<path fill="#E7DB5A" d="M497.3,292.3c0,18.8-13.4,27.7-25.9,27.7c-14.3,0-25-10.7-25-26.8c0-17,11.6-27.7,25.9-27.7
				C487.5,265.4,497.3,276.2,497.3,292.3z M456.2,292.3c0,11.6,6.3,19.7,16.1,19.7c8.9,0,16.1-8.1,16.1-20.6
				c0-8.9-4.5-19.7-15.2-19.7C461.5,272.6,456.2,282.4,456.2,292.3z"/>
			<path fill="#E7DB5A" d="M556.4,292.3c0,18.8-13.4,27.7-25.9,27.7c-14.3,0-25-10.7-25-26.8c0-17,11.6-27.7,25.9-27.7
				C546.5,265.4,556.4,276.2,556.4,292.3z M515.2,292.3c0,11.6,6.3,19.7,16.1,19.7c8.9,0,16.1-8.1,16.1-20.6
				c0-8.9-4.5-19.7-15.2-19.7C519.7,272.6,515.2,282.4,515.2,292.3z"/>
			<path fill="#E7DB5A" d="M577.8,290.5L577.8,290.5c1.8-1.8,3.6-4.5,4.5-6.3l15.2-17.9h11.6l-19.7,21.5l23.3,30.4h-11.6l-17.9-25
				l-4.5,5.4v19.7h-8.9v-76h8.9v48.3L577.8,290.5L577.8,290.5z"/>
			<path fill="#E7DB5A" d="M630.6,252c0,3.6-2.7,5.4-6.3,5.4s-5.4-2.7-5.4-5.4c0-3.6,2.7-6.3,6.3-6.3
				C628.8,245.8,630.6,248.4,630.6,252z M620.8,318.2v-51.9h9.8v51.9H620.8z"/>
			<path fill="#E7DB5A" d="M645.8,280.6c0-5.4,0-9.8,0-14.3h8.1l0.9,8.9l0,0c2.7-5.4,8.9-9.8,17-9.8c7.2,0,18.8,4.5,18.8,22.4v30.4
				h-9.8v-29.5c0-8.1-2.7-15.2-11.6-15.2c-6.3,0-10.7,4.5-12.5,9.8c0,0.9-0.9,2.7-0.9,4.5v30.4H646v-37.6H645.8z"/>
			<path fill="#E7DB5A" d="M749.6,266.3c0,3.6,0,8.1,0,14.3V311c0,11.6-2.7,18.8-7.2,24.2c-5.4,4.5-12.5,6.3-18.8,6.3
				s-13.4-1.8-17-4.5l2.7-7.2c3.6,1.8,8.9,4.5,15.2,4.5c9.8,0,17-5.4,17-17.9v-7.1l0,0c-2.7,4.5-8.1,8.9-16.1,8.9
				c-12.5,0-22.4-10.7-22.4-25c0-17.9,11.6-27.7,23.3-27.7c8.9,0,14.3,4.5,16.1,8.9l0,0v-8.1H749.6z M740.6,286.9
				c0-1.8,0-2.7-0.9-4.5c-1.8-5.4-6.3-9.8-13.4-9.8c-8.9,0-15.2,8.1-15.2,19.7c0,9.8,5.4,18.8,15.2,18.8c5.4,0,10.7-3.6,13.4-9.8
				c0.9-1.8,0.9-3.6,0.9-5.4V286.9z"/>
			<path fill="#E7DB5A" d="M788.9,318.2v-44.7h-7.2v-7.2h7.2v-2.7c0-7.2,1.8-14.3,6.3-17.9c3.6-3.6,8.1-4.5,12.5-4.5
				c3.6,0,6.3,0.9,8.1,1.8l-1.8,6.3c-1.8-0.9-3.6-0.9-6.3-0.9c-8.1,0-9.8,7.2-9.8,15.2v2.7h12.5v7.2h-12.5v44.7H788.9z"/>
			<path fill="#E7DB5A" d="M864.9,292.3c0,18.8-13.4,27.7-25.9,27.7c-14.3,0-25-10.7-25-26.8c0-17,11.6-27.7,25.9-27.7
				C855.1,265.4,864.9,276.2,864.9,292.3z M823.8,292.3c0,11.6,6.3,19.7,16.1,19.7c8.9,0,16.1-8.1,16.1-20.6
				c0-8.9-4.5-19.7-15.2-19.7C828.3,272.6,823.8,282.4,823.8,292.3z"/>
			<path fill="#E7DB5A" d="M876.6,282.4c0-6.3,0-11.6,0-16.1h8.1v9.8l0,0c2.7-7.2,8.1-11.6,14.3-11.6c0.9,0,1.8,0,2.7,0v8.9
				c-0.9,0-1.8,0-3.6,0c-6.3,0-11.6,5.4-12.5,12.5c0,0.9,0,2.7,0,4.5v27.7h-8.9L876.6,282.4L876.6,282.4z"/>
			<path fill="#E7DB5A" d="M963.3,318.2l-0.9-6.3l0,0c-2.7,4.5-8.1,8.1-16.1,8.1c-10.7,0-16.1-7.2-16.1-15.2
				c0-12.5,10.7-19.7,31.3-19.7v-0.9c0-4.5-0.9-11.6-11.6-11.6c-4.5,0-9.8,1.8-13.4,3.6l-1.8-6.3c4.5-2.7,10.7-4.5,17-4.5
				c16.1,0,19.7,10.7,19.7,21.5v19.7c0,4.5,0,8.9,0.9,12.5h-8.9v-0.9H963.3z M962.4,291.4c-10.7,0-22.4,1.8-22.4,11.6
				c0,6.3,4.5,8.9,8.9,8.9c7.2,0,10.7-4.5,12.5-8.9c0-0.9,0.9-1.8,0.9-2.7L962.4,291.4L962.4,291.4z"/>
			<path fill="#E7DB5A" d="M996.4,333.4c4.5,0,8.1-1.8,10.7-3.6c2.7-2.7,3.6-7.2,3.6-19.7v-43.8h9.8v47.4c0,9.8-1.8,17-6.3,21.5
				s-10.7,6.3-16.1,6.3L996.4,333.4z M1020.6,252c0,2.7-1.8,5.4-6.3,5.4c-3.6,0-5.4-2.7-5.4-5.4c0-3.6,2.7-6.3,6.3-6.3
				C1018.8,245.8,1020.6,248.4,1020.6,252z"/>
			<path fill="#E7DB5A" d="M1082.3,292.3c0,18.8-13.4,27.7-25.9,27.7c-14.3,0-25-10.7-25-26.8c0-17,11.6-27.7,25.9-27.7
				C1072.5,265.4,1082.3,276.2,1082.3,292.3z M1041.1,292.3c0,11.6,6.3,19.7,16.1,19.7c8.9,0,16.1-8.1,16.1-20.6
				c0-8.9-4.5-19.7-15.2-19.7C1045.6,272.6,1041.1,282.4,1041.1,292.3z"/>
			<path fill="#E7DB5A" d="M1093.9,318.2c0-3.6,0-8.9,0-13.4v-62.6h8.9v32.2l0,0c3.6-5.4,8.9-9.8,17.9-9.8
				c12.5,0,22.4,10.7,21.5,26.8c0,18.8-11.6,27.7-23.3,27.7c-7.2,0-13.4-2.7-17-9.8l0,0v8.9H1093.9z M1103.8,297.6
				c0,0.9,0,2.7,0,3.6c1.8,6.3,7.2,10.7,14.3,10.7c9.8,0,16.1-8.1,16.1-19.7c0-10.7-5.4-19.7-15.2-19.7c-6.3,0-12.5,4.5-14.3,11.6
				c0,0.9-0.9,2.7-0.9,3.6V297.6L1103.8,297.6z"/>
			<path fill="#E7DB5A" d="M1162.8,297.6v-2.7c-0.9-5.4,0.9-12.5,6.3-18.8c4.5-5.4,7.2-9.8,7.2-14.3c0-5.4-3.6-8.9-9.8-8.9
				c-3.6,0-8,0.9-10.7,3.6l-2.7-7.2c3.6-2.7,9.8-4.5,15.2-4.5c12.5,0,17.9,8.1,17.9,16.1c0,7.2-4.5,12.5-8.9,18.8
				c-4.5,5.4-6.3,10.7-6.3,16.1v2.7h-8.1L1162.8,297.6L1162.8,297.6z M1160.1,312.8c0-3.6,2.7-7.2,6.3-7.2s6.3,2.7,6.3,7.2
				c0,3.6-2.7,6.3-6.3,6.3S1160.1,316.4,1160.1,312.8z"/>
			<path fill="#E7DB5A" d="M1205.7,244.9l-1.8,25.9h-5.4l-1.8-25.9H1205.7z M1221.8,244.9l-1.8,25.9h-5.4l-1.8-25.9H1221.8z"/>
			<path fill="#E7DB5A" d="M1229,331.6c2.7-6.3,5.4-17.9,6.3-25.9l10.7-0.9c-2.7,8.9-7.2,21.5-10.7,25.9L1229,331.6z M1233.5,275.3
				c0-3.6,2.7-7.2,6.3-7.2s6.3,2.7,6.3,7.2c0,3.6-2.7,6.3-6.3,6.3C1236.1,281.5,1233.5,278.9,1233.5,275.3z"/>
			<path fill="#71CEE6" d="M62.6,551.7c0,12.5,8.1,17.9,17.9,17.9c7.2,0,10.7-0.9,14.3-2.7l1.8,7.2c-3.6,1.8-8.9,3.6-17,3.6
				c-16.1,0-25.9-10.7-25.9-25.9c0-16.1,8.9-27.7,24.2-27.7c17,0,21.5,15.2,21.5,24.2c0,1.8,0,3.6,0,4.5H62.6V551.7z M89.4,544.5
				c0-6.3-2.7-15.2-13.4-15.2c-9.8,0-13.4,8.9-14.3,15.2H89.4z"/>
			<path fill="#71CEE6" d="M147.6,574c-2.7,0.9-8.1,2.7-15.2,2.7c-16.1,0-25.9-10.7-25.9-26.8s10.7-27.7,27.7-27.7
				c5.4,0,10.7,1.8,13.4,2.7l-1.8,8.1c-2.7-0.9-5.4-2.7-10.7-2.7c-11.6,0-18.8,8.9-18.8,19.7c0,11.6,8.1,19.7,17.9,19.7
				c5.4,0,8.9-1.8,11.6-2.7L147.6,574z"/>
			<path fill="#71CEE6" d="M159.2,499.8h9.8V532l0,0c1.8-2.7,3.6-5.4,7.2-6.3c2.7-1.8,6.3-2.7,9.8-2.7c7.2,0,17.9,4.5,17.9,22.4
				v31.3h-9.8v-29.5c0-8.1-2.7-15.2-11.6-15.2c-6.3,0-10.7,4.5-12.5,9.8c-0.9,0.9-0.9,2.7-0.9,4.5v31.3h-9.8L159.2,499.8
				L159.2,499.8z"/>
			<path fill="#71CEE6" d="M265.7,549.9c0,18.8-13.4,27.7-25.9,27.7c-14.3,0-25-10.7-25-26.8c0-17,11.6-27.7,25.9-27.7
				C254.9,523,265.7,533.8,265.7,549.9z M224.5,549.9c0,11.6,6.3,19.7,16.1,19.7c8.9,0,16.1-8.1,16.1-20.6c0-8.9-4.5-19.7-15.2-19.7
				C229,530.2,224.5,540,224.5,549.9z"/>
			<path fill="#E7DB5A" d="M306.8,502.5l-1.8,25.9h-5.4l-1.8-25.9H306.8z M322.9,502.5l-1.8,25.9h-5.4l-1.8-25.9H322.9z"/>
			<path fill="#E7DB5A" d="M349.7,575.8l-18.8-72.5h9.8l8.9,36.7c1.8,8.9,4.5,17.9,5.4,25l0,0c0.9-7.2,3.6-16.1,6.3-25l9.8-36.7h9.8
				l8.9,36.7c1.8,8.9,3.6,17,5.4,25l0,0c1.8-8.1,3.6-16.1,5.4-25l9.8-36.7h9.8l-20.6,72.5H390l-8.9-37.6c-2.7-8.9-3.6-16.1-4.5-23.3
				l0,0c-0.9,7.2-2.7,14.3-5.4,23.3l-10.7,37.6H349.7L349.7,575.8z"/>
			<path fill="#E7DB5A" d="M430.2,551.7c0,12.5,8.1,17.9,17.9,17.9c7.2,0,10.7-0.9,14.3-2.7l1.8,7.2c-3.6,1.8-8.9,3.6-17,3.6
				c-16.1,0-25.9-10.7-25.9-25.9c0-16.1,8.9-27.7,24.2-27.7c17,0,21.5,15.2,21.5,24.2c0,1.8,0,3.6,0,4.5h-36.7L430.2,551.7
				L430.2,551.7z M458,544.5c0-6.3-2.7-15.2-13.4-15.2c-9.8,0-13.4,8.9-14.3,15.2H458z"/>
			<path fill="#E7DB5A" d="M530.4,575.8l-0.9-6.3l0,0c-2.7,4.5-8.1,8.1-16.1,8.1c-10.7,0-16.1-7.2-16.1-15.2
				c0-12.5,10.7-19.7,31.3-19.7v-0.9c0-4.5-0.9-11.6-11.6-11.6c-4.5,0-9.8,1.8-13.4,3.6l-1.8-6.3c4.5-2.7,10.7-4.5,17-4.5
				c16.1,0,19.7,10.7,19.7,21.5v19.7c0,4.5,0,8.9,0.9,12.5h-8.9v-0.9H530.4z M529.5,549c-10.7,0-22.4,1.8-22.4,11.6
				c0,6.3,4.5,8.9,8.9,8.9c7.2,0,10.7-4.5,12.5-8.9c0-0.9,0.9-1.8,0.9-2.7L529.5,549L529.5,549z"/>
			<path fill="#E7DB5A" d="M553.7,540c0-6.3,0-11.6,0-16.1h8.1v9.8l0,0c2.7-7.2,8.1-11.6,14.3-11.6c0.9,0,1.8,0,2.7,0v8.9
				c-0.9,0-1.8,0-3.6,0c-6.3,0-11.6,5.4-12.5,12.5c0,0.9,0,2.7,0,4.5v27.7h-8.9L553.7,540L553.7,540z"/>
			<path fill="#E7DB5A" d="M593,551.7c0,12.5,8.1,17.9,17.9,17.9c7.2,0,10.7-0.9,14.3-2.7l1.8,7.2c-3.6,1.8-8.9,3.6-17,3.6
				c-16.1,0-25.9-10.7-25.9-25.9c0-16.1,8.9-27.7,24.2-27.7c17,0,21.5,15.2,21.5,24.2c0,1.8,0,3.6,0,4.5H593V551.7z M620.8,544.5
				c0-6.3-2.7-15.2-13.4-15.2c-9.8,0-13.4,8.9-14.3,15.2H620.8z"/>
			<path fill="#E7DB5A" d="M663.7,499.8h9.8V532l0,0c1.8-2.7,3.6-5.4,7.2-6.3c2.7-1.8,6.3-2.7,9.8-2.7c7.2,0,17.9,4.5,17.9,22.4
				v31.3h-9.8v-29.5c0-8.1-2.7-15.2-11.6-15.2c-6.3,0-10.7,4.5-12.5,9.8c-0.9,0.9-0.9,2.7-0.9,4.5v31.3h-9.8v-77.8H663.7z"/>
			<path fill="#E7DB5A" d="M734.3,509.6c0,3.6-2.7,5.4-6.3,5.4s-5.4-2.7-5.4-5.4c0-3.6,2.7-6.3,6.3-6.3
				C731.7,503.4,734.3,506,734.3,509.6z M723.6,575.8v-51.9h9.8v51.9H723.6z"/>
			<path fill="#E7DB5A" d="M748.7,540c0-6.3,0-11.6,0-16.1h8.1v9.8l0,0c2.7-7.2,8.1-11.6,14.3-11.6c0.9,0,1.8,0,2.7,0v8.9
				c-0.9,0-1.8,0-3.6,0c-6.3,0-11.6,5.4-12.5,12.5c0,0.9,0,2.7,0,4.5v27.7h-8.9L748.7,540L748.7,540z"/>
			<path fill="#E7DB5A" d="M795.2,509.6c0,3.6-2.7,5.4-6.3,5.4s-5.4-2.7-5.4-5.4c0-3.6,2.7-6.3,6.3-6.3
				C792.5,503.4,795.2,506,795.2,509.6z M784.4,575.8v-51.9h9.8v51.9H784.4z"/>
			<path fill="#E7DB5A" d="M809.5,538.2c0-5.4,0-9.8,0-14.3h8.1l0.9,8.9l0,0c2.7-5.4,8.9-9.8,17-9.8c7.2,0,18.8,4.5,18.8,22.4v31.3
				h-9.8v-29.5c0-8.1-2.7-15.2-11.6-15.2c-6.3,0-10.7,4.5-12.5,9.8c0,0.9-0.9,2.7-0.9,4.5v31.3h-9.8v-39.4H809.5z"/>
			<path fill="#E7DB5A" d="M914.1,523.9c0,3.6,0,8.1,0,14.3v30.4c0,11.6-2.7,18.8-7.2,24.2c-5.4,4.5-12.5,6.3-18.8,6.3
				s-13.4-1.8-17-4.5l2.7-7.2c3.6,1.8,8.9,4.5,15.2,4.5c9.8,0,17-5.4,17-17.9v-5.4l0,0c-2.7,4.5-8.1,8.9-16.1,8.9
				c-12.5,0-22.4-10.7-22.4-25c0-17.9,11.6-27.7,23.3-27.7c8.9,0,14.3,4.5,16.1,8.9l0,0v-8.1h7.2V523.9z M904.3,544.5
				c0-1.8,0-2.7-0.9-4.5c-1.8-5.4-6.3-9.8-13.4-9.8c-8.9,0-15.2,8.1-15.2,19.7c0,9.8,5.4,18.8,15.2,18.8c5.4,0,10.7-3.6,13.4-9.8
				c0.9-1.8,0.9-3.6,0.9-5.4V544.5z"/>
			<path fill="#E7DB5A" d="M975,575.8c-1.8-1.8-3.6-4.5-7.2-7.2c-6.3,5.4-13.4,8.1-21.5,8.1c-14.3,0-22.4-9.8-22.4-20.6
				c0-9.8,6.3-17,14.3-21.5l0,0c-3.6-4.5-6.3-9.8-6.3-15.2c0-8.9,6.3-17.9,18.8-17.9c8.9,0,16.1,6.3,16.1,15.2
				c0,8.1-4.5,13.4-16.1,19.7l0,0c6.3,7.2,13.4,15.2,17.9,20.6c3.6-5.4,5.4-11.6,7.2-21.5h8.9c-1.8,11.6-5.4,20.6-10.7,26.8
				c3.6,4.5,8.1,8.1,11.6,12.5H975V575.8z M963.3,563.3c-4.5-4.5-12.5-13.4-20.6-22.4c-3.6,2.7-8.9,7.2-8.9,14.3
				c0,8.1,6.3,14.3,15.2,14.3C954.4,570.4,959.7,566.9,963.3,563.3z M941,519.5c0,5.4,2.7,8.9,5.4,13.4c7.2-4.5,11.6-8.1,11.6-14.3
				c0-4.5-2.7-8.9-8.1-8.9C944.5,508.7,941,514.1,941,519.5z"/>
			<path fill="#E7DB5A" d="M993.7,499.8h9.8V532l0,0c1.8-2.7,3.6-5.4,7.2-6.3c2.7-1.8,6.3-2.7,9.8-2.7c7.2,0,17.9,4.5,17.9,22.4
				v31.3h-9.8v-29.5c0-8.1-2.7-15.2-11.6-15.2c-6.3,0-10.7,4.5-12.5,9.8c-0.9,0.9-0.9,2.7-0.9,4.5v31.3h-9.8L993.7,499.8
				L993.7,499.8z"/>
			<path fill="#E7DB5A" d="M1059,551.7c0,12.5,8.1,17.9,17.9,17.9c7.2,0,10.7-0.9,14.3-2.7l1.8,7.2c-3.6,1.8-8.9,3.6-17,3.6
				c-16.1,0-25.9-10.7-25.9-25.9c0-16.1,8.9-27.7,24.2-27.7c17,0,21.5,15.2,21.5,24.2c0,1.8,0,3.6,0,4.5H1059V551.7z M1086.8,544.5
				c0-6.3-2.7-15.2-13.4-15.2c-9.8,0-13.4,8.9-14.3,15.2H1086.8z"/>
			<path fill="#E7DB5A" d="M1107.3,499.8h9.8v76h-9.8V499.8z"/>
			<path fill="#E7DB5A" d="M1132.4,499.8h9.8v76h-9.8V499.8z"/>
			<path fill="#E7DB5A" d="M1168.2,509.6c0,3.6-2.7,5.4-6.3,5.4s-5.4-2.7-5.4-5.4c0-3.6,2.7-6.3,6.3-6.3S1168.2,506,1168.2,509.6z
				 M1158.3,575.8v-51.9h9.8v51.9H1158.3z"/>
			<path fill="#E7DB5A" d="M1183.4,540.9c0-6.3,0-11.6,0-17h8.1v8.9l0,0c3.6-6.3,9.8-9.8,18.8-9.8c12.5,0,22.4,10.7,22.4,26.8
				c0,18.8-11.6,27.7-23.3,27.7c-7.2,0-12.5-2.7-16.1-8.1l0,0V598h-8.9v-57.2h-1V540.9z M1192.3,554.3c0,1.8,0,2.7,0,3.6
				c1.8,6.3,7.2,10.7,14.3,10.7c9.8,0,16.1-8.1,16.1-19.7c0-10.7-5.4-19.7-15.2-19.7c-6.3,0-12.5,4.5-14.3,11.6
				c0,0.9-0.9,2.7-0.9,3.6V554.3z"/>
			<path fill="#E7DB5A" d="M1237.9,589.2c2.7-6.3,5.4-17.9,6.3-25.9l10.7-0.9c-2.7,8.9-7.2,21.5-10.7,25.9L1237.9,589.2z
				 M1242.4,532.9c0-3.6,2.7-7.2,6.3-7.2s6.3,2.7,6.3,7.2c0,3.6-2.7,6.3-6.3,6.3S1242.4,536.5,1242.4,532.9z"/>
			<path fill="#E7DB5A" d="M1296.1,502.5l-1.8,25.9h-6.3l-1.8-25.9H1296.1z M1312.2,502.5l-1.8,25.9h-5.4l-1.8-25.9H1312.2z"/>
			<path fill="#E7DB5A" d="M1346.2,570.4c0-3.6,2.7-7.2,6.3-7.2s6.3,2.7,6.3,7.2c0,3.6-2.7,7.2-6.3,7.2
				C1347.9,576.7,1346.2,574,1346.2,570.4z"/>
			<path fill="#F9F9F2" d="M1408.8,584.8v-10.7c-6.3,0-12.5-1.8-16.1-4.5l2.7-7.2c3.6,2.7,9.8,4.5,15.2,4.5
				c8.1,0,12.5-4.5,12.5-10.7s-4.5-9.8-12.5-12.5c-10.7-4.5-17.9-8.9-17.9-18.8c0-8.9,6.3-16.1,16.1-17v-10.7h6.3v10.7
				c6.3,0,10.7,1.8,14.3,3.6l-2.7,7.2c-2.7-0.9-6.3-3.6-13.4-3.6c-8.1,0-11.6,5.4-11.6,8.9c0,5.4,3.6,8.1,13.4,12.5
				c10.7,4.5,17,9.8,17,19.7c0,8.1-6.3,16.1-17,17.9v10.7H1408.8L1408.8,584.8z"/>
			<path fill="#F9F9F2" d="M1451.7,523.9l11.6,30.4c0.9,3.6,2.7,7.2,3.6,10.7l0,0c0.9-2.7,1.8-7.2,3.6-10.7l10.7-30.4h9.8
				l-14.3,36.7c-7.2,17.9-11.6,26.8-17.9,32.2c-4.5,4.5-8.9,5.4-11.6,6.3l-2.7-8.1c2.7-0.9,5.4-2.7,8.1-4.5s5.4-5.4,8.1-10.7
				c0-0.9,0.9-1.8,0.9-2.7s0-0.9-0.9-2.7l-18.8-47.4h9.8L1451.7,523.9L1451.7,523.9z"/>
			<path fill="#F9F9F2" d="M1544.7,549.9c0,18.8-13.4,27.7-25.9,27.7c-14.3,0-25-10.7-25-26.8c0-17,11.6-27.7,25.9-27.7
				S1544.7,533.8,1544.7,549.9z M1503.6,549.9c0,11.6,6.3,19.7,16.1,19.7c8.9,0,16.1-8.1,16.1-20.6c0-8.9-4.5-19.7-15.2-19.7
				C1508.1,530.2,1503.6,540,1503.6,549.9z"/>
			<path fill="#F9F9F2" d="M1600.2,561.5c0,5.4,0,9.8,0,14.3h-8.1l-0.9-8.1l0,0c-2.7,4.5-8.1,9.8-17,9.8c-8.1,0-17.9-4.5-17.9-22.4
				v-31.3h9.8v28.6c0,9.8,2.7,16.1,11.6,16.1c6.3,0,10.7-4.5,12.5-8.9c0.9-1.8,0.9-2.7,0.9-4.5v-31.3h9.8v37.6h-0.7V561.5z"/>
			<path fill="#F9F9F2" d="M1610,589.2c2.7-6.3,5.4-17.9,6.3-25.9l10.7-0.9c-2.7,8.9-7.2,21.5-10.7,25.9L1610,589.2z M1614.5,532.9
				c0-3.6,2.7-7.2,6.3-7.2s6.3,2.7,6.3,7.2c0,3.6-2.7,6.3-6.3,6.3S1614.5,536.5,1614.5,532.9z"/>
			<path fill="#F9F9F2" d="M64.4,684v-2.7c-0.9-5.4,0.9-12.5,6.3-18.8c4.5-5.4,7.2-9.8,7.2-14.3c0-5.4-3.6-8.9-9.8-8.9
				c-3.6,0-8.1,0.9-10.7,3.6l-2.7-7.2c3.6-2.7,9.8-4.5,15.2-4.5c12.5,0,17.9,8.1,17.9,16.1c0,7.2-4.5,12.5-8.9,18.8
				c-4.5,5.4-6.3,10.7-6.3,16.1v2.7h-8.1L64.4,684L64.4,684z M61.7,699.2c0-3.6,2.7-7.2,6.3-7.2s6.3,2.7,6.3,7.2
				c0,3.6-2.7,6.3-6.3,6.3C64.4,705.5,61.7,702.8,61.7,699.2z"/>
			<path fill="#F9F9F2" d="M149.4,679.6l-50.1,25.9v-7.2l42-21.5l0,0l-42-21.5v-7l50.1,25.9V679.6z"/>
		</g>
	</g>
	<path display="inline" fill="#272822" d="M1892.7,667.9"/>
</g>
<g>
	<path fill="#272822" d="M1992.8,58.8H7.2c-3.6,0-7.2,3.6-7.2,8.1v724.5c0,4.5,3.6,8.1,7.2,8.1H1661c1.8,0,3.6,0.9,5.4,2.7
		l178,195.9c4.5,4.5,12.5,1.8,12.5-5.4v-186c0-4.5,3.6-8.1,7.2-8.1h128.8c3.6,0,7.2-3.6,7.2-8.1V66
		C2000,62.4,1996.4,58.8,1992.8,58.8z"/>
	<g>
		<path fill="#F9F9F2" d="M56.4,158.1l50.1-25.9v7.2l-42,21.5l0,0l42,21.5v7.2l-50.1-25.9C56.4,163.5,56.4,158.1,56.4,158.1z"/>
		<path fill="#F9F9F2" d="M127.9,168.8v-2.7c-0.9-5.4,0.9-12.5,6.3-18.8c4.5-5.4,7.2-9.8,7.2-14.3c0-5.4-3.6-8.9-9.8-8.9
			c-3.6,0-8.1,0.9-10.7,3.6l-2.7-7.2c3.6-2.7,9.8-4.5,15.2-4.5c12.5,0,17.9,8.1,17.9,16.1c0,7.2-4.5,12.5-8.9,18.8
			c-4.5,5.4-6.3,10.7-6.3,16.1v2.7H128L127.9,168.8L127.9,168.8z M126.1,184c0-3.6,2.7-7.2,6.3-7.2c3.6,0,6.3,2.7,6.3,7.2
			c0,3.6-2.7,6.3-6.3,6.3C128.8,190.3,126.1,187.6,126.1,184z"/>
		<path fill="#F9F9F2" d="M164.6,154.5c0-6.3,0-11.6,0-17h8.1v8.9l0,0c3.6-6.3,9.8-9.8,18.8-9.8c12.5,0,22.4,10.7,22.4,26.8
			c0,18.8-11.6,27.7-23.3,27.7c-7.2,0-12.5-2.7-16.1-8.1l0,0v27.7h-8.9v-56.4h-1V154.5z M173.5,167.9c0,1.8,0,2.7,0,3.6
			c1.8,6.3,7.2,10.7,14.3,10.7c9.8,0,16.1-8.1,16.1-19.7c0-10.7-5.4-19.7-15.2-19.7c-6.3,0-12.5,4.5-14.3,11.6
			c0,0.9-0.9,2.7-0.9,3.6L173.5,167.9L173.5,167.9z"/>
		<path fill="#F9F9F2" d="M225.4,113.4h9.8v32.2l0,0c1.8-2.7,3.6-4.5,6.3-6.3s6.3-2.7,9.8-2.7c7.2,0,17.9,4.5,17.9,22.4v31.3h-9.8
			v-29.5c0-8.1-2.7-15.2-11.6-15.2c-6.3,0-10.7,4.5-12.5,9.8c-0.9,0.9-0.9,2.7-0.9,4.5v31.3h-9.8v-77.8H225.4z"/>
		<path fill="#F9F9F2" d="M285.3,154.5c0-6.3,0-11.6,0-17h8.1v8.9l0,0c3.6-6.3,9.8-9.8,18.8-9.8c12.5,0,22.4,10.7,22.4,26.8
			c0,18.8-11.6,27.7-23.3,27.7c-7.2,0-12.5-2.7-16.1-8.1l0,0v27.7h-8.9v-56.4h-1V154.5z M294.3,167.9c0,1.8,0,2.7,0,3.6
			c1.8,6.3,7.2,10.7,14.3,10.7c9.8,0,16.1-8.1,16.1-19.7c0-10.7-5.4-19.7-15.2-19.7c-6.3,0-12.5,4.5-14.3,11.6
			c0,0.9-0.9,2.7-0.9,3.6V167.9z"/>
		<path fill="#F9F9F2" d="M72.5,327.2v-10.7c-6.3,0-12.5-1.8-16.1-4.5l2.7-7.2c3.6,2.7,8.9,4.5,15.2,4.5c8.1,0,12.5-4.5,12.5-10.7
			c0-6.3-4.5-9.8-12.5-12.5c-10.7-4.5-17.9-8.9-17.9-18.8c0-8.9,6.3-16.1,16.1-17v-10.7h6.3v10.7c6.3,0,10.7,1.8,14.3,3.6l-2.7,7.2
			c-2.7-0.9-6.3-3.6-13.4-3.6c-8.1,0-11.6,5.4-11.6,8.9c0,5.4,3.6,8.1,13.4,12.5c10.7,4.5,17,9.8,17,19.7c0,8.1-6.3,16.1-17,17.9
			v10.7L72.5,327.2L72.5,327.2z"/>
		<path fill="#F9F9F2" d="M115.4,266.3l11.6,30.4c0.9,3.6,2.7,7.2,3.6,10.7l0,0c0.9-2.7,1.8-7.2,3.6-10.7l10.7-30.4h9.8L140.4,303
			c-7.2,17.9-11.6,26.8-17.9,32.2c-4.5,4.5-8.9,5.4-11.6,6.3l-2.7-8.1c2.7-0.9,5.4-2.7,8.1-4.5s5.4-5.4,8.1-10.7
			c0-0.9,0.9-1.8,0.9-2.7c0-0.9,0-0.9-0.9-2.7l-18.8-47.4h9.8C115.4,265.4,115.4,266.3,115.4,266.3z"/>
		<path fill="#F9F9F2" d="M208.4,292.3c0,18.8-13.4,27.7-25.9,27.7c-14.3,0-25-10.7-25-26.8c0-17,11.6-27.7,25.9-27.7
			C198.6,265.4,208.4,276.2,208.4,292.3z M167.3,292.3c0,11.6,6.3,19.7,16.1,19.7c8.9,0,16.1-8.1,16.1-20.6
			c0-8.9-4.5-19.7-15.2-19.7C171.7,272.6,167.3,282.4,167.3,292.3z"/>
		<path fill="#F9F9F2" d="M263.9,303.9c0,5.4,0,9.8,0,14.3h-8.1l-0.9-8.1l0,0c-2.7,4.5-8.1,9.8-17,9.8c-8.1,0-17.9-4.5-17.9-22.4
			v-30.4h9.8v28.6c0,9.8,2.7,16.1,11.6,16.1c6.3,0,10.7-4.5,12.5-8.9c0.9-1.8,0.9-2.7,0.9-4.5v-32.1h9.8v37.6H263.9z"/>
		<path fill="#EE2E73" d="M298.7,282.4v-6.3h55.5v6.3H298.7z M298.7,303v-6.3h55.5v6.3H298.7z"/>
		<path fill="#E7DB5A" d="M396.2,244.9l-1.8,25.9H389l-1.8-25.9H396.2z M412.3,244.9l-1.8,25.9h-5.4l-2.7-25.9H412.3z"/>
		<path fill="#E7DB5A" d="M461.5,316.4c-2.7,0.9-8.1,2.7-15.2,2.7c-16.1,0-25.9-10.7-25.9-26.8s10.7-27.7,27.7-27.7
			c5.4,0,10.7,1.8,13.4,2.7l-1.8,7.2c-2.7-0.9-5.4-2.7-10.7-2.7c-11.6,0-18.8,8.9-18.8,19.7c0,11.6,8.1,19.7,17.9,19.7
			c5.4,0,8.9-1.8,11.6-2.7L461.5,316.4z"/>
		<path fill="#E7DB5A" d="M472.3,242.2h9.8v32.2l0,0c1.8-2.7,3.6-5.4,7.2-6.3c2.7-1.8,6.3-2.7,9.8-2.7c7.2,0,17.9,4.5,17.9,22.4
			v30.4h-9.8v-29.5c0-8.1-2.7-15.2-11.6-15.2c-6.3,0-10.7,4.5-12.5,9.8c-0.9,0.9-0.9,2.7-0.9,4.5v30.4h-9.8v-76H472.3z"/>
		<path fill="#E7DB5A" d="M537.6,294.1c0,12.5,8.1,17.9,17.9,17.9c7.2,0,10.7-0.9,14.3-2.7l1.8,7.2c-3.6,1.8-8.9,3.6-17,3.6
			c-16.1,0-25.9-10.7-25.9-25.9s8.9-27.7,24.2-27.7c17,0,21.5,15.2,21.5,24.2c0,1.8,0,3.6,0,4.5h-36.7L537.6,294.1L537.6,294.1z
			 M565.3,286.9c0-6.3-2.7-15.2-13.4-15.2c-9.8,0-13.4,8.9-14.3,15.2H565.3z"/>
		<path fill="#E7DB5A" d="M622.5,316.4c-2.7,0.9-8.1,2.7-15.2,2.7c-16.1,0-25.9-10.7-25.9-26.8s10.7-27.7,27.7-27.7
			c5.4,0,10.7,1.8,13.4,2.7l-1.8,7.2c-2.7-0.9-5.4-2.7-10.7-2.7c-11.6,0-18.8,8.9-18.8,19.7c0,11.6,8.1,19.7,17.9,19.7
			c5.4,0,8.9-1.8,11.6-2.7L622.5,316.4z"/>
		<path fill="#E7DB5A" d="M643.1,290.5L643.1,290.5c1.8-1.8,3.6-4.5,4.5-6.3l15.2-17.9h11.6l-19.7,21.5l23.3,30.4h-11.6l-17.9-25
			l-4.5,5.4v19.7h-8.9v-76h8.9v48.3L643.1,290.5L643.1,290.5z"/>
		<path fill="#E7DB5A" d="M717.4,252c0,3.6-2.7,5.4-6.3,5.4s-5.4-2.7-5.4-5.4c0-3.6,2.7-6.3,6.3-6.3
			C715.6,245.8,717.4,248.4,717.4,252z M706.6,318.2v-51.9h9.8v51.9H706.6z"/>
		<path fill="#E7DB5A" d="M743.3,251.1v15.2h13.4v7.2h-13.4v27.7c0,6.3,1.8,9.8,7.2,9.8c2.7,0,4.5,0,5.4-0.9v7.2
			c-1.8,0.9-4.5,0.9-8.1,0.9c-4.5,0-8.1-1.8-9.8-3.6c-2.7-2.7-3.6-7.2-3.6-13.4v-27.7h-8.1v-7.2h8.1v-12.5L743.3,251.1z"/>
		<path fill="#E7DB5A" d="M837.2,292.3c0,18.8-13.4,27.7-25.9,27.7c-14.3,0-25-10.7-25-26.8c0-17,11.6-27.7,25.9-27.7
			C827.4,265.4,837.2,276.2,837.2,292.3z M796.1,292.3c0,11.6,6.3,19.7,16.1,19.7c8.9,0,16.1-8.1,16.1-20.6
			c0-8.9-4.5-19.7-15.2-19.7C800.5,272.6,796.1,282.4,796.1,292.3z"/>
		<path fill="#E7DB5A" d="M892.7,303.9c0,5.4,0,9.8,0,14.3h-8.1l-0.9-8.1l0,0c-2.7,4.5-8.1,9.8-17,9.8c-8.1,0-17.9-4.5-17.9-22.4
			v-30.4h9.8v28.6c0,9.8,2.7,16.1,11.6,16.1c6.3,0,10.7-4.5,12.5-8.9c0.9-1.8,0.9-2.7,0.9-4.5v-32.1h9.8v37.6H892.7z"/>
		<path fill="#E7DB5A" d="M919.5,251.1v15.2h13.4v7.2h-13.4v27.7c0,6.3,1.8,9.8,7.2,9.8c2.7,0,4.5,0,5.4-0.9v7.2
			c-1.8,0.9-4.5,0.9-8.1,0.9c-4.5,0-8.1-1.8-9.8-3.6c-2.7-2.7-3.6-7.2-3.6-13.4v-27.7h-8.1v-7.2h8.1v-12.5L919.5,251.1z"/>
		<path fill="#E7DB5A" d="M950.8,244.9l-1.8,25.9h-5.4l-1.8-25.9H950.8z M966.9,244.9l-1.8,25.9h-5.4l-1.8-25.9H966.9z"/>
		<path fill="#E7DB5A" d="M974.1,331.6c2.7-6.3,5.4-17.9,6.3-25.9l10.7-0.9c-2.7,8.9-7.2,21.5-10.7,25.9L974.1,331.6z M978.5,275.3
			c0-3.6,2.7-7.2,6.3-7.2s6.3,2.7,6.3,7.2c0,3.6-2.7,6.3-6.3,6.3C981.2,281.5,978.5,278.9,978.5,275.3z"/>
		<path fill="#71CEE6" d="M62.6,551.7c0,12.5,8.1,17.9,17.9,17.9c7.2,0,10.7-0.9,14.3-2.7l1.8,7.2c-3.6,1.8-8.9,3.6-17,3.6
			c-16.1,0-25.9-10.7-25.9-25.9c0-16.1,8.9-27.7,24.2-27.7c17,0,21.5,15.2,21.5,24.2c0,1.8,0,3.6,0,4.5H62.6V551.7z M89.4,544.5
			c0-6.3-2.7-15.2-13.4-15.2c-9.8,0-13.4,8.9-14.3,15.2H89.4z"/>
		<path fill="#71CEE6" d="M147.6,574c-2.7,0.9-8.1,2.7-15.2,2.7c-16.1,0-25.9-10.7-25.9-26.8s10.7-27.7,27.7-27.7
			c5.4,0,10.7,1.8,13.4,2.7l-1.8,8.1c-2.7-0.9-5.4-2.7-10.7-2.7c-11.6,0-18.8,8.9-18.8,19.7c0,11.6,8.1,19.7,17.9,19.7
			c5.4,0,8.9-1.8,11.6-2.7L147.6,574z"/>
		<path fill="#71CEE6" d="M159.2,499.8h9.8V532l0,0c1.8-2.7,3.6-5.4,7.2-6.3c2.7-1.8,6.3-2.7,9.8-2.7c7.2,0,17.9,4.5,17.9,22.4v31.3
			h-9.8v-29.5c0-8.1-2.7-15.2-11.6-15.2c-6.3,0-10.7,4.5-12.5,9.8c-0.9,0.9-0.9,2.7-0.9,4.5v31.3h-9.8L159.2,499.8L159.2,499.8z"/>
		<path fill="#71CEE6" d="M265.7,549.9c0,18.8-13.4,27.7-25.9,27.7c-14.3,0-25-10.7-25-26.8c0-17,11.6-27.7,25.9-27.7
			C254.9,523,265.7,533.8,265.7,549.9z M224.5,549.9c0,11.6,6.3,19.7,16.1,19.7c8.9,0,16.1-8.1,16.1-20.6c0-8.9-4.5-19.7-15.2-19.7
			C229,530.2,224.5,540,224.5,549.9z"/>
		<path fill="#E7DB5A" d="M306.8,502.5l-1.8,25.9h-5.4l-1.8-25.9H306.8z M322.9,502.5l-1.8,25.9h-5.4l-1.8-25.9H322.9z"/>
		<path fill="#E7DB5A" d="M353.3,575.8v-30.4l-23.3-42h10.7l9.8,19.7c2.7,5.4,5.4,9.8,7.2,15.2l0,0c1.8-4.5,4.5-9.8,7.2-15.2
			l10.7-19.7h10.7l-24.2,41.1v30.4h-8.9L353.3,575.8L353.3,575.8z"/>
		<path fill="#E7DB5A" d="M391.8,551.7c0,12.5,8.1,17.9,17.9,17.9c7.2,0,10.7-0.9,14.3-2.7l1.8,7.2c-3.6,1.8-8.9,3.6-17,3.6
			c-16.1,0-25.9-10.7-25.9-25.9c0-16.1,8.9-27.7,24.2-27.7c17,0,21.5,15.2,21.5,24.2c0,1.8,0,3.6,0,4.5h-36.7L391.8,551.7
			L391.8,551.7z M419.5,544.5c0-6.3-2.7-15.2-13.4-15.2c-9.8,0-13.4,8.9-14.3,15.2H419.5z"/>
		<path fill="#E7DB5A" d="M439.2,566c2.7,1.8,8.1,3.6,12.5,3.6c7.2,0,9.8-3.6,9.8-8.1s-2.7-7.2-9.8-9.8c-8.9-3.6-13.4-8.1-13.4-14.3
			c0-8.1,7.2-15.2,17.9-15.2c5.4,0,9.8,1.8,12.5,3.6L466,533c-1.8-0.9-5.4-2.7-10.7-2.7c-5.4,0-8.9,3.6-8.9,7.2
			c0,4.5,2.7,6.3,9.8,8.9c8.9,3.6,13.4,8.1,13.4,16.1c0,8.9-7.2,15.2-19.7,15.2c-5.4,0-10.7-1.8-14.3-3.6L439.2,566z"/>
		<path fill="#E7DB5A" d="M475.8,589.2c2.7-6.3,5.4-17.9,6.3-25.9l10.7-0.9c-2.7,8.9-7.2,21.5-9.8,25.9L475.8,589.2z"/>
		<path fill="#E7DB5A" d="M520.6,589.2c2.7-6.3,5.4-17.9,6.3-25.9l10.7-0.9c-2.7,8.9-7.2,21.5-10.7,25.9L520.6,589.2z M525,532.9
			c0-3.6,2.7-7.2,6.3-7.2s6.3,2.7,6.3,7.2c0,3.6-2.7,6.3-6.3,6.3S525,536.5,525,532.9z"/>
		<path fill="#E7DB5A" d="M578.7,502.5l-1.8,25.9h-5.4l-1.8-25.9H578.7z M594.8,502.5l-1.8,25.9h-5.4l-1.8-25.9H594.8z"/>
		<path fill="#E7DB5A" d="M627.9,570.4c0-3.6,2.7-7.2,6.3-7.2s6.3,2.7,6.3,7.2c0,3.6-2.7,7.2-6.3,7.2
			C630.6,576.7,627.9,574,627.9,570.4z"/>
		<path fill="#F9F9F2" d="M690.5,584.8v-10.7c-6.3,0-12.5-1.8-16.1-4.5l2.7-7.2c3.6,2.7,9.8,4.5,15.2,4.5c8.1,0,12.5-4.5,12.5-10.7
			s-4.5-9.8-12.5-12.5c-10.7-4.5-17.9-8.9-17.9-18.8c0-8.9,6.3-16.1,16.1-17v-10.7h6.3v10.7c6.3,0,10.7,1.8,14.3,3.6l-2.7,7.2
			c-2.7-0.9-6.3-3.6-13.4-3.6c-8.1,0-11.6,5.4-11.6,8.9c0,5.4,3.6,8.1,13.4,12.5c10.7,4.5,17,9.8,17,19.7c0,8.1-6.3,16.1-17,17.9
			v10.7H690.5L690.5,584.8z"/>
		<path fill="#F9F9F2" d="M733.5,523.9l11.6,30.4c0.9,3.6,2.7,7.2,3.6,10.7l0,0c0.9-2.7,1.8-7.2,3.6-10.7l10.7-30.4h9.8l-14.3,36.7
			c-7.2,17.9-11.6,26.8-17.9,32.2c-4.5,4.5-8.9,5.4-11.6,6.3l-2.7-8.1c2.7-0.9,5.4-2.7,8.1-4.5c2.7-1.8,5.4-5.4,8.1-10.7
			c0-0.9,0.9-1.8,0.9-2.7s0-0.9-0.9-2.7l-18.8-46.5L733.5,523.9L733.5,523.9z"/>
		<path fill="#F9F9F2" d="M826.5,549.9c0,18.8-13.4,27.7-25.9,27.7c-14.3,0-25-10.7-25-26.8c0-17,11.6-27.7,25.9-27.7
			C816.6,523,826.5,533.8,826.5,549.9z M785.3,549.9c0,11.6,6.3,19.7,16.1,19.7c8.9,0,16.1-8.1,16.1-20.6c0-8.9-4.5-19.7-15.2-19.7
			C790.7,530.2,785.3,540,785.3,549.9z"/>
		<path fill="#F9F9F2" d="M881.9,561.5c0,5.4,0,9.8,0,14.3h-8.1l-0.9-8.1l0,0c-2.7,4.5-8.1,9.8-17,9.8c-8.1,0-17.9-4.5-17.9-22.4
			v-31.3h9.8v28.6c0,9.8,2.7,16.1,11.6,16.1c6.3,0,10.7-4.5,12.5-8.9c0.9-1.8,0.9-2.7,0.9-4.5v-31.3h9.8v37.6h-0.7V561.5z"/>
		<path fill="#F9F9F2" d="M918.6,570.4c0-3.6,2.7-7.2,6.3-7.2s6.3,2.7,6.3,7.2c0,3.6-2.7,7.2-6.3,7.2
			C921.3,576.7,918.6,574,918.6,570.4z"/>
		<path fill="#E7DB5A" d="M952.6,528.4c2.7-8.9,7.2-20.6,9.8-25.9l6.3-0.9c-2.7,6.3-5.4,17-6.3,25L952.6,528.4z M968.7,528.4
			c2.7-8.9,7.2-20.6,9.8-25.9l6.3-0.9c-2.7,6.3-5.4,17-6.3,25L968.7,528.4z"/>
		<path fill="#E7DB5A" d="M992.8,570.4c0-3.6,2.7-6.3,6.3-6.3s6.3,2.7,6.3,6.3s-2.7,6.3-6.3,6.3S992.8,574,992.8,570.4z
			 M995.5,555.2l-1.8-51.9h10.7l-1.8,51.9H995.5z"/>
		<path fill="#E7DB5A" d="M1031.3,502.5c-2.7,8.9-7.2,20.6-9.8,25l-6.3,0.9c2.7-6.3,5.4-17.9,6.3-25L1031.3,502.5z M1047.4,502.5
			c-2.7,8.9-7.2,20.6-9.8,25l-6.3,0.9c2.7-6.3,5.4-17.9,6.3-25L1047.4,502.5z"/>
		<path fill="#F9F9F2" d="M1051.9,589.2c2.7-6.3,5.4-17.9,6.3-25.9l10.7-0.9c-2.7,8.9-7.2,21.5-10.7,25.9L1051.9,589.2z
			 M1056.4,532.9c0-3.6,2.7-7.2,6.3-7.2s6.3,2.7,6.3,7.2c0,3.6-2.7,6.3-6.3,6.3S1056.4,536.5,1056.4,532.9z"/>
		<path fill="#F9F9F2" d="M64.4,684v-2.7c-0.9-5.4,0.9-12.5,6.3-18.8c4.5-5.4,7.2-9.8,7.2-14.3c0-5.4-3.6-8.9-9.8-8.9
			c-3.6,0-8.1,0.9-10.7,3.6l-2.7-7.2c3.6-2.7,9.8-4.5,15.2-4.5c12.5,0,17.9,8.1,17.9,16.1c0,7.2-4.5,12.5-8.9,18.8
			c-4.5,5.4-6.3,10.7-6.3,16.1v2.7h-8.1L64.4,684L64.4,684z M61.7,699.2c0-3.6,2.7-7.2,6.3-7.2s6.3,2.7,6.3,7.2
			c0,3.6-2.7,6.3-6.3,6.3C64.4,705.5,61.7,702.8,61.7,699.2z"/>
		<path fill="#F9F9F2" d="M149.4,679.6l-50.1,25.9v-7.2l42-21.5l0,0l-42-21.5v-7l50.1,25.9V679.6z"/>
	</g>
</g>
</svg>
