<?xml version="1.0" encoding="UTF-8" standalone="no"?>
<!-- Generator: Adobe Illustrator 18.1.1, SVG Export Plug-In . SVG Version: 6.00 Build 0)  -->

<svg
   xmlns:dc="http://purl.org/dc/elements/1.1/"
   xmlns:cc="http://creativecommons.org/ns#"
   xmlns:rdf="http://www.w3.org/1999/02/22-rdf-syntax-ns#"
   xmlns:svg="http://www.w3.org/2000/svg"
   xmlns="http://www.w3.org/2000/svg"
   xmlns:sodipodi="http://sodipodi.sourceforge.net/DTD/sodipodi-0.dtd"
   xmlns:inkscape="http://www.inkscape.org/namespaces/inkscape"
   version="1.1"
   id="Layer_1"
   x="0px"
   y="0px"
   viewBox="-8 356.1 70 69.999999"
   enable-background="new -8 356.1 80 80"
   xml:space="preserve"
   inkscape:version="0.91 r13725"
   sodipodi:docname="ft-logo.svg"
   width="70"
   height="70"><metadata
     id="metadata3347"><rdf:RDF><cc:Work
         rdf:about=""><dc:format>image/svg+xml</dc:format><dc:type
           rdf:resource="http://purl.org/dc/dcmitype/StillImage" /><dc:title></dc:title></cc:Work></rdf:RDF></metadata><defs
     id="defs3345" /><sodipodi:namedview
     pagecolor="#ffffff"
     bordercolor="#666666"
     borderopacity="1"
     objecttolerance="10"
     gridtolerance="10"
     guidetolerance="10"
     inkscape:pageopacity="0"
     inkscape:pageshadow="2"
     inkscape:window-width="1920"
     inkscape:window-height="1017"
     id="namedview3343"
     showgrid="false"
     inkscape:zoom="10.225"
     inkscape:cx="14.12176"
     inkscape:cy="31.899994"
     inkscape:window-x="2152"
     inkscape:window-y="-8"
     inkscape:window-maximized="1"
     inkscape:current-layer="Layer_1"
     fit-margin-top="0"
     fit-margin-left="0"
     fit-margin-right="0"
     fit-margin-bottom="0" /><path
     id="path3339"
     d="m 42.95,395.65001 0,14.4 c 0,3.5 0,5.1 3,5.1 2,0 5.3,-0.1 5.3,-0.1 l 0.4,7.5 c 0,0 -4.7,1.1 -7.2,1.1 -8.5,0 -11,-3.2 -11,-13.4 l 0,-14.6 -4.1,0 0,-8 4.2,0 0,-9.8 9.4,0 0,9.8 8.6,0 0,8 -8.6,0 z m -36.6,27.9 0,-36.9 -4,0 0,-8.8 4,0 0,-8.8 c 0,-7 3.4,-10.5 10.2,-10.5 l 8.3,0 0,8.8 c -3.5,0 -5.3,1.5 -5.3,4.4 l 0,6.1 5.3,0 0,8.8 -5.3,0 0,36.9 -13.2,0 z"
     inkscape:connector-curvature="0" /><g
     id="g3341"
     transform="translate(-13.8,-1.8999924)" /></svg>