<?xml version="1.0" encoding="utf-8"?>
<!-- Generator: Adobe Illustrator 18.1.1, SVG Export Plug-In . SVG Version: 6.00 Build 0)  -->
<svg version="1.1" xmlns="http://www.w3.org/2000/svg" xmlns:xlink="http://www.w3.org/1999/xlink" x="0px" y="0px"
	 viewBox="0 0 223.6 105.2" enable-background="new 0 0 223.6 105.2" xml:space="preserve">
<g id="Layer_1" display="none">
	<g display="inline">
		<path fill="#272822" d="M222.8,0H0.8C0.4,0,0,0.4,0,0.9l0,81c0,0.5,0.4,0.9,0.8,0.9h184.9c0.2,0,0.4,0.1,0.6,0.3l19.9,21.9
			c0.5,0.5,1.4,0.2,1.4-0.6V83.6c0-0.5,0.4-0.9,0.8-0.9h14.4c0.4,0,0.8-0.4,0.8-0.9v-81C223.6,0.4,223.2,0,222.8,0z"/>
		<g>
			<path fill="#F9F9F2" d="M6.3,11.1l5.6-2.9v0.8l-4.7,2.4v0l4.7,2.4v0.8l-5.6-2.9V11.1z"/>
			<path fill="#F9F9F2" d="M14.3,12.3l0-0.3c-0.1-0.6,0.1-1.4,0.7-2.1c0.5-0.6,0.8-1.1,0.8-1.6c0-0.6-0.4-1-1.1-1
				c-0.4,0-0.9,0.1-1.2,0.4l-0.3-0.8c0.4-0.3,1.1-0.5,1.7-0.5c1.4,0,2,0.9,2,1.8c0,0.8-0.5,1.4-1,2.1c-0.5,0.6-0.7,1.2-0.7,1.8
				l0,0.3H14.3z M14.1,14c0-0.4,0.3-0.8,0.7-0.8c0.4,0,0.7,0.3,0.7,0.8c0,0.4-0.3,0.7-0.7,0.7C14.4,14.7,14.1,14.4,14.1,14z"/>
			<path fill="#F9F9F2" d="M18.4,10.7c0-0.7,0-1.3,0-1.9h0.9l0,1h0c0.4-0.7,1.1-1.1,2.1-1.1c1.4,0,2.5,1.2,2.5,3
				c0,2.1-1.3,3.1-2.6,3.1c-0.8,0-1.4-0.3-1.8-0.9h0V17h-1V10.7z M19.4,12.2c0,0.2,0,0.3,0,0.4c0.2,0.7,0.8,1.2,1.6,1.2
				c1.1,0,1.8-0.9,1.8-2.2c0-1.2-0.6-2.2-1.7-2.2c-0.7,0-1.4,0.5-1.6,1.3c0,0.1-0.1,0.3-0.1,0.4V12.2z"/>
			<path fill="#F9F9F2" d="M25.2,6.1h1.1v3.6h0C26.5,9.4,26.7,9.2,27,9c0.3-0.2,0.7-0.3,1.1-0.3c0.8,0,2,0.5,2,2.5v3.5h-1.1v-3.3
				c0-0.9-0.3-1.7-1.3-1.7c-0.7,0-1.2,0.5-1.4,1.1c-0.1,0.1-0.1,0.3-0.1,0.5v3.5h-1.1V6.1z"/>
			<path fill="#F9F9F2" d="M31.9,10.7c0-0.7,0-1.3,0-1.9h0.9l0,1h0c0.4-0.7,1.1-1.1,2.1-1.1c1.4,0,2.5,1.2,2.5,3
				c0,2.1-1.3,3.1-2.6,3.1c-0.8,0-1.4-0.3-1.8-0.9h0V17h-1V10.7z M32.9,12.2c0,0.2,0,0.3,0,0.4c0.2,0.7,0.8,1.2,1.6,1.2
				c1.1,0,1.8-0.9,1.8-2.2c0-1.2-0.6-2.2-1.7-2.2c-0.7,0-1.4,0.5-1.6,1.3c0,0.1-0.1,0.3-0.1,0.4V12.2z"/>
			<path fill="#F9F9F2" d="M8.1,30v-1.2c-0.7,0-1.4-0.2-1.8-0.5l0.3-0.8C7,27.8,7.6,28,8.3,28c0.9,0,1.4-0.5,1.4-1.2
				c0-0.7-0.5-1.1-1.4-1.4c-1.2-0.5-2-1-2-2.1c0-1,0.7-1.8,1.8-1.9v-1.2h0.7v1.2c0.7,0,1.2,0.2,1.6,0.4l-0.3,0.8
				c-0.3-0.1-0.7-0.4-1.5-0.4c-0.9,0-1.3,0.6-1.3,1c0,0.6,0.4,0.9,1.5,1.4c1.2,0.5,1.9,1.1,1.9,2.2c0,0.9-0.7,1.8-1.9,2V30H8.1z"/>
			<path fill="#F9F9F2" d="M12.9,23.2l1.3,3.4c0.1,0.4,0.3,0.8,0.4,1.2h0c0.1-0.3,0.2-0.8,0.4-1.2l1.2-3.4h1.1l-1.6,4.1
				c-0.8,2-1.3,3-2,3.6c-0.5,0.5-1,0.6-1.3,0.7l-0.3-0.9c0.3-0.1,0.6-0.3,0.9-0.5c0.3-0.2,0.6-0.6,0.9-1.2c0-0.1,0.1-0.2,0.1-0.3
				c0-0.1,0-0.1-0.1-0.3l-2.1-5.3H12.9z"/>
			<path fill="#F9F9F2" d="M23.3,26.1c0,2.1-1.5,3.1-2.9,3.1c-1.6,0-2.8-1.2-2.8-3c0-1.9,1.3-3.1,2.9-3.1
				C22.2,23.1,23.3,24.3,23.3,26.1z M18.7,26.1c0,1.3,0.7,2.2,1.8,2.2c1,0,1.8-0.9,1.8-2.3c0-1-0.5-2.2-1.7-2.2
				C19.2,23.9,18.7,25,18.7,26.1z"/>
			<path fill="#F9F9F2" d="M29.5,27.4c0,0.6,0,1.1,0,1.6h-0.9l-0.1-0.9h0c-0.3,0.5-0.9,1.1-1.9,1.1c-0.9,0-2-0.5-2-2.5v-3.4h1.1v3.2
				c0,1.1,0.3,1.8,1.3,1.8c0.7,0,1.2-0.5,1.4-1c0.1-0.2,0.1-0.3,0.1-0.5v-3.6h1.1V27.4z"/>
			<path fill="#EE2E73" d="M33.4,25v-0.7h6.2V25H33.4z M33.4,27.3v-0.7h6.2v0.7H33.4z"/>
			<path fill="#E7DB5A" d="M44.3,20.8l-0.2,2.9h-0.6l-0.2-2.9H44.3z M46.1,20.8l-0.2,2.9h-0.6L45,20.8H46.1z"/>
			<path fill="#E7DB5A" d="M47.5,20.5h1.1V29h-1.1V20.5z"/>
			<path fill="#E7DB5A" d="M55.6,26.1c0,2.1-1.5,3.1-2.9,3.1c-1.6,0-2.8-1.2-2.8-3c0-1.9,1.3-3.1,2.9-3.1
				C54.5,23.1,55.6,24.3,55.6,26.1z M51,26.1c0,1.3,0.7,2.2,1.8,2.2c1,0,1.8-0.9,1.8-2.3c0-1-0.5-2.2-1.7-2.2
				C51.6,23.9,51,25,51,26.1z"/>
			<path fill="#E7DB5A" d="M62.2,26.1c0,2.1-1.5,3.1-2.9,3.1c-1.6,0-2.8-1.2-2.8-3c0-1.9,1.3-3.1,2.9-3.1
				C61.1,23.1,62.2,24.3,62.2,26.1z M57.6,26.1c0,1.3,0.7,2.2,1.8,2.2c1,0,1.8-0.9,1.8-2.3c0-1-0.5-2.2-1.7-2.2
				C58.1,23.9,57.6,25,57.6,26.1z"/>
			<path fill="#E7DB5A" d="M64.6,25.9L64.6,25.9c0.2-0.2,0.4-0.5,0.5-0.7l1.7-2h1.3l-2.2,2.4l2.6,3.4h-1.3l-2-2.8l-0.5,0.6V29h-1
				v-8.5h1V25.9z"/>
			<path fill="#E7DB5A" d="M70.5,21.6c0,0.4-0.3,0.6-0.7,0.6c-0.4,0-0.6-0.3-0.6-0.6c0-0.4,0.3-0.7,0.7-0.7
				C70.3,20.9,70.5,21.2,70.5,21.6z M69.4,29v-5.8h1.1V29H69.4z"/>
			<path fill="#E7DB5A" d="M72.2,24.8c0-0.6,0-1.1,0-1.6h0.9l0.1,1h0c0.3-0.6,1-1.1,1.9-1.1c0.8,0,2.1,0.5,2.1,2.5V29h-1.1v-3.3
				c0-0.9-0.3-1.7-1.3-1.7c-0.7,0-1.2,0.5-1.4,1.1c0,0.1-0.1,0.3-0.1,0.5V29h-1.1V24.8z"/>
			<path fill="#E7DB5A" d="M83.8,23.2c0,0.4,0,0.9,0,1.6v3.4c0,1.3-0.3,2.1-0.8,2.7c-0.6,0.5-1.4,0.7-2.1,0.7
				c-0.7,0-1.5-0.2-1.9-0.5l0.3-0.8c0.4,0.2,1,0.5,1.7,0.5c1.1,0,1.9-0.6,1.9-2V28h0c-0.3,0.5-0.9,1-1.8,1c-1.4,0-2.5-1.2-2.5-2.8
				c0-2,1.3-3.1,2.6-3.1c1,0,1.6,0.5,1.8,1h0l0-0.9H83.8z M82.8,25.5c0-0.2,0-0.3-0.1-0.5c-0.2-0.6-0.7-1.1-1.5-1.1
				c-1,0-1.7,0.9-1.7,2.2c0,1.1,0.6,2.1,1.7,2.1c0.6,0,1.2-0.4,1.5-1.1c0.1-0.2,0.1-0.4,0.1-0.6V25.5z"/>
			<path fill="#E7DB5A" d="M88.2,29v-5h-0.8v-0.8h0.8v-0.3c0-0.8,0.2-1.6,0.7-2c0.4-0.4,0.9-0.5,1.4-0.5c0.4,0,0.7,0.1,0.9,0.2
				L91,21.3c-0.2-0.1-0.4-0.1-0.7-0.1c-0.9,0-1.1,0.8-1.1,1.7v0.3h1.4V24h-1.4v5H88.2z"/>
			<path fill="#E7DB5A" d="M96.7,26.1c0,2.1-1.5,3.1-2.9,3.1c-1.6,0-2.8-1.2-2.8-3c0-1.9,1.3-3.1,2.9-3.1
				C95.6,23.1,96.7,24.3,96.7,26.1z M92.1,26.1c0,1.3,0.7,2.2,1.8,2.2c1,0,1.8-0.9,1.8-2.3c0-1-0.5-2.2-1.7-2.2
				C92.6,23.9,92.1,25,92.1,26.1z"/>
			<path fill="#E7DB5A" d="M98,25c0-0.7,0-1.3,0-1.8h0.9l0,1.1h0c0.3-0.8,0.9-1.3,1.6-1.3c0.1,0,0.2,0,0.3,0v1c-0.1,0-0.2,0-0.4,0
				c-0.7,0-1.3,0.6-1.4,1.4c0,0.1,0,0.3,0,0.5V29h-1V25z"/>
			<path fill="#E7DB5A" d="M107.7,29l-0.1-0.7h0c-0.3,0.5-0.9,0.9-1.8,0.9c-1.2,0-1.8-0.8-1.8-1.7c0-1.4,1.2-2.2,3.5-2.2v-0.1
				c0-0.5-0.1-1.3-1.3-1.3c-0.5,0-1.1,0.2-1.5,0.4l-0.2-0.7c0.5-0.3,1.2-0.5,1.9-0.5c1.8,0,2.2,1.2,2.2,2.4v2.2c0,0.5,0,1,0.1,1.4
				H107.7z M107.6,26c-1.2,0-2.5,0.2-2.5,1.3c0,0.7,0.5,1,1,1c0.8,0,1.2-0.5,1.4-1c0-0.1,0.1-0.2,0.1-0.3V26z"/>
			<path fill="#E7DB5A" d="M111.4,30.7c0.5,0,0.9-0.2,1.2-0.4c0.3-0.3,0.4-0.8,0.4-2.2v-4.9h1.1v5.3c0,1.1-0.2,1.9-0.7,2.4
				c-0.5,0.5-1.2,0.7-1.8,0.7L111.4,30.7z M114.1,21.6c0,0.3-0.2,0.6-0.7,0.6c-0.4,0-0.6-0.3-0.6-0.6c0-0.4,0.3-0.7,0.7-0.7
				C113.9,20.9,114.1,21.2,114.1,21.6z"/>
			<path fill="#E7DB5A" d="M121,26.1c0,2.1-1.5,3.1-2.9,3.1c-1.6,0-2.8-1.2-2.8-3c0-1.9,1.3-3.1,2.9-3.1
				C119.9,23.1,121,24.3,121,26.1z M116.4,26.1c0,1.3,0.7,2.2,1.8,2.2c1,0,1.8-0.9,1.8-2.3c0-1-0.5-2.2-1.7-2.2
				C116.9,23.9,116.4,25,116.4,26.1z"/>
			<path fill="#E7DB5A" d="M122.3,29c0-0.4,0-1,0-1.5v-7h1v3.6h0c0.4-0.6,1-1.1,2-1.1c1.4,0,2.5,1.2,2.4,3c0,2.1-1.3,3.1-2.6,3.1
				c-0.8,0-1.5-0.3-1.9-1.1h0l0,1H122.3z M123.4,26.7c0,0.1,0,0.3,0,0.4c0.2,0.7,0.8,1.2,1.6,1.2c1.1,0,1.8-0.9,1.8-2.2
				c0-1.2-0.6-2.2-1.7-2.2c-0.7,0-1.4,0.5-1.6,1.3c0,0.1-0.1,0.3-0.1,0.4V26.7z"/>
			<path fill="#E7DB5A" d="M130,26.7l0-0.3c-0.1-0.6,0.1-1.4,0.7-2.1c0.5-0.6,0.8-1.1,0.8-1.6c0-0.6-0.4-1-1.1-1
				c-0.4,0-0.9,0.1-1.2,0.4l-0.3-0.8c0.4-0.3,1.1-0.5,1.7-0.5c1.4,0,2,0.9,2,1.8c0,0.8-0.5,1.4-1,2.1c-0.5,0.6-0.7,1.2-0.7,1.8
				l0,0.3H130z M129.7,28.4c0-0.4,0.3-0.8,0.7-0.8c0.4,0,0.7,0.3,0.7,0.8c0,0.4-0.3,0.7-0.7,0.7C130,29.1,129.7,28.8,129.7,28.4z"/>
			<path fill="#E7DB5A" d="M134.8,20.8l-0.2,2.9H134l-0.2-2.9H134.8z M136.6,20.8l-0.2,2.9h-0.6l-0.2-2.9H136.6z"/>
			<path fill="#E7DB5A" d="M137.4,30.5c0.3-0.7,0.6-2,0.7-2.9l1.2-0.1c-0.3,1-0.8,2.4-1.2,2.9L137.4,30.5z M137.9,24.2
				c0-0.4,0.3-0.8,0.7-0.8c0.4,0,0.7,0.3,0.7,0.8c0,0.4-0.3,0.7-0.7,0.7C138.2,24.9,137.9,24.6,137.9,24.2z"/>
			<path fill="#71CEE6" d="M7,55.1c0,1.4,0.9,2,2,2c0.8,0,1.2-0.1,1.6-0.3l0.2,0.8c-0.4,0.2-1,0.4-1.9,0.4c-1.8,0-2.9-1.2-2.9-2.9
				c0-1.8,1-3.1,2.7-3.1c1.9,0,2.4,1.7,2.4,2.7c0,0.2,0,0.4,0,0.5H7z M10,54.3c0-0.7-0.3-1.7-1.5-1.7c-1.1,0-1.5,1-1.6,1.7H10z"/>
			<path fill="#71CEE6" d="M16.5,57.6c-0.3,0.1-0.9,0.3-1.7,0.3c-1.8,0-2.9-1.2-2.9-3c0-1.8,1.2-3.1,3.1-3.1c0.6,0,1.2,0.2,1.5,0.3
				L16.3,53c-0.3-0.1-0.6-0.3-1.2-0.3c-1.3,0-2.1,1-2.1,2.2c0,1.3,0.9,2.2,2,2.2c0.6,0,1-0.2,1.3-0.3L16.5,57.6z"/>
			<path fill="#71CEE6" d="M17.8,49.3h1.1v3.6h0c0.2-0.3,0.4-0.6,0.8-0.7c0.3-0.2,0.7-0.3,1.1-0.3c0.8,0,2,0.5,2,2.5v3.5h-1.1v-3.3
				c0-0.9-0.3-1.7-1.3-1.7c-0.7,0-1.2,0.5-1.4,1.1c-0.1,0.1-0.1,0.3-0.1,0.5v3.5h-1.1V49.3z"/>
			<path fill="#71CEE6" d="M29.7,54.9c0,2.1-1.5,3.1-2.9,3.1c-1.6,0-2.8-1.2-2.8-3c0-1.9,1.3-3.1,2.9-3.1
				C28.5,51.9,29.7,53.1,29.7,54.9z M25.1,54.9c0,1.3,0.7,2.2,1.8,2.2c1,0,1.8-0.9,1.8-2.3c0-1-0.5-2.2-1.7-2.2
				C25.6,52.7,25.1,53.8,25.1,54.9z"/>
			<path fill="#E7DB5A" d="M34.3,49.6l-0.2,2.9h-0.6l-0.2-2.9H34.3z M36.1,49.6l-0.2,2.9h-0.6l-0.2-2.9H36.1z"/>
			<path fill="#E7DB5A" d="M39.1,57.8l-2.1-8.1h1.1l1,4.1c0.2,1,0.5,2,0.6,2.8h0c0.1-0.8,0.4-1.8,0.7-2.8l1.1-4.1h1.1l1,4.1
				c0.2,1,0.4,1.9,0.6,2.8h0c0.2-0.9,0.4-1.8,0.6-2.8l1.1-4.1H47l-2.3,8.1h-1.1l-1-4.2c-0.3-1-0.4-1.8-0.5-2.6h0
				c-0.1,0.8-0.3,1.6-0.6,2.6l-1.2,4.2H39.1z"/>
			<path fill="#E7DB5A" d="M48.1,55.1c0,1.4,0.9,2,2,2c0.8,0,1.2-0.1,1.6-0.3l0.2,0.8c-0.4,0.2-1,0.4-1.9,0.4
				c-1.8,0-2.9-1.2-2.9-2.9c0-1.8,1-3.1,2.7-3.1c1.9,0,2.4,1.7,2.4,2.7c0,0.2,0,0.4,0,0.5H48.1z M51.2,54.3c0-0.7-0.3-1.7-1.5-1.7
				c-1.1,0-1.5,1-1.6,1.7H51.2z"/>
			<path fill="#E7DB5A" d="M59.3,57.8l-0.1-0.7h0c-0.3,0.5-0.9,0.9-1.8,0.9c-1.2,0-1.8-0.8-1.8-1.7c0-1.4,1.2-2.2,3.5-2.2V54
				c0-0.5-0.1-1.3-1.3-1.3c-0.5,0-1.1,0.2-1.5,0.4l-0.2-0.7c0.5-0.3,1.2-0.5,1.9-0.5c1.8,0,2.2,1.2,2.2,2.4v2.2c0,0.5,0,1,0.1,1.4
				H59.3z M59.2,54.8c-1.2,0-2.5,0.2-2.5,1.3c0,0.7,0.5,1,1,1c0.8,0,1.2-0.5,1.4-1c0-0.1,0.1-0.2,0.1-0.3V54.8z"/>
			<path fill="#E7DB5A" d="M61.9,53.8c0-0.7,0-1.3,0-1.8h0.9l0,1.1h0c0.3-0.8,0.9-1.3,1.6-1.3c0.1,0,0.2,0,0.3,0v1
				c-0.1,0-0.2,0-0.4,0c-0.7,0-1.3,0.6-1.4,1.4c0,0.1,0,0.3,0,0.5v3.1h-1V53.8z"/>
			<path fill="#E7DB5A" d="M66.3,55.1c0,1.4,0.9,2,2,2c0.8,0,1.2-0.1,1.6-0.3l0.2,0.8c-0.4,0.2-1,0.4-1.9,0.4
				c-1.8,0-2.9-1.2-2.9-2.9c0-1.8,1-3.1,2.7-3.1c1.9,0,2.4,1.7,2.4,2.7c0,0.2,0,0.4,0,0.5H66.3z M69.4,54.3c0-0.7-0.3-1.7-1.5-1.7
				c-1.1,0-1.5,1-1.6,1.7H69.4z"/>
			<path fill="#E7DB5A" d="M74.2,49.3h1.1v3.6h0c0.2-0.3,0.4-0.6,0.8-0.7c0.3-0.2,0.7-0.3,1.1-0.3c0.8,0,2,0.5,2,2.5v3.5h-1.1v-3.3
				c0-0.9-0.3-1.7-1.3-1.7c-0.7,0-1.2,0.5-1.4,1.1c-0.1,0.1-0.1,0.3-0.1,0.5v3.5h-1.1V49.3z"/>
			<path fill="#E7DB5A" d="M82.1,50.4c0,0.4-0.3,0.6-0.7,0.6c-0.4,0-0.6-0.3-0.6-0.6c0-0.4,0.3-0.7,0.7-0.7
				C81.8,49.7,82.1,50,82.1,50.4z M80.9,57.8V52H82v5.8H80.9z"/>
			<path fill="#E7DB5A" d="M83.7,53.8c0-0.7,0-1.3,0-1.8h0.9l0,1.1h0c0.3-0.8,0.9-1.3,1.6-1.3c0.1,0,0.2,0,0.3,0v1
				c-0.1,0-0.2,0-0.4,0c-0.7,0-1.3,0.6-1.4,1.4c0,0.1,0,0.3,0,0.5v3.1h-1V53.8z"/>
			<path fill="#E7DB5A" d="M88.9,50.4c0,0.4-0.3,0.6-0.7,0.6c-0.4,0-0.6-0.3-0.6-0.6c0-0.4,0.3-0.7,0.7-0.7
				C88.6,49.7,88.9,50,88.9,50.4z M87.7,57.8V52h1.1v5.8H87.7z"/>
			<path fill="#E7DB5A" d="M90.5,53.6c0-0.6,0-1.1,0-1.6h0.9l0.1,1h0c0.3-0.6,1-1.1,1.9-1.1c0.8,0,2.1,0.5,2.1,2.5v3.5h-1.1v-3.3
				c0-0.9-0.3-1.7-1.3-1.7c-0.7,0-1.2,0.5-1.4,1.1c0,0.1-0.1,0.3-0.1,0.5v3.5h-1.1V53.6z"/>
			<path fill="#E7DB5A" d="M102.2,52c0,0.4,0,0.9,0,1.6V57c0,1.3-0.3,2.1-0.8,2.7c-0.6,0.5-1.4,0.7-2.1,0.7c-0.7,0-1.5-0.2-1.9-0.5
				l0.3-0.8c0.4,0.2,1,0.5,1.7,0.5c1.1,0,1.9-0.6,1.9-2v-0.6h0c-0.3,0.5-0.9,1-1.8,1c-1.4,0-2.5-1.2-2.5-2.8c0-2,1.3-3.1,2.6-3.1
				c1,0,1.6,0.5,1.8,1h0l0-0.9H102.2z M101.1,54.3c0-0.2,0-0.3-0.1-0.5c-0.2-0.6-0.7-1.1-1.5-1.1c-1,0-1.7,0.9-1.7,2.2
				c0,1.1,0.6,2.1,1.7,2.1c0.6,0,1.2-0.4,1.5-1.1c0.1-0.2,0.1-0.4,0.1-0.6V54.3z"/>
			<path fill="#E7DB5A" d="M109,57.8c-0.2-0.2-0.4-0.5-0.8-0.8c-0.7,0.6-1.5,0.9-2.4,0.9c-1.6,0-2.5-1.1-2.5-2.3
				c0-1.1,0.7-1.9,1.6-2.4v0c-0.4-0.5-0.7-1.1-0.7-1.7c0-1,0.7-2,2.1-2c1,0,1.8,0.7,1.8,1.7c0,0.9-0.5,1.5-1.8,2.2v0
				c0.7,0.8,1.5,1.7,2,2.3c0.4-0.6,0.6-1.3,0.8-2.4h1c-0.2,1.3-0.6,2.3-1.2,3c0.4,0.5,0.9,0.9,1.3,1.4H109z M107.7,56.4
				c-0.5-0.5-1.4-1.5-2.3-2.5c-0.4,0.3-1,0.8-1,1.6c0,0.9,0.7,1.6,1.7,1.6C106.7,57.2,107.3,56.8,107.7,56.4z M105.2,51.5
				c0,0.6,0.3,1,0.6,1.5c0.8-0.5,1.3-0.9,1.3-1.6c0-0.5-0.3-1-0.9-1C105.6,50.3,105.2,50.9,105.2,51.5z"/>
			<path fill="#E7DB5A" d="M111.1,49.3h1.1v3.6h0c0.2-0.3,0.4-0.6,0.8-0.7c0.3-0.2,0.7-0.3,1.1-0.3c0.8,0,2,0.5,2,2.5v3.5H115v-3.3
				c0-0.9-0.3-1.7-1.3-1.7c-0.7,0-1.2,0.5-1.4,1.1c-0.1,0.1-0.1,0.3-0.1,0.5v3.5h-1.1V49.3z"/>
			<path fill="#E7DB5A" d="M118.4,55.1c0,1.4,0.9,2,2,2c0.8,0,1.2-0.1,1.6-0.3l0.2,0.8c-0.4,0.2-1,0.4-1.9,0.4
				c-1.8,0-2.9-1.2-2.9-2.9c0-1.8,1-3.1,2.7-3.1c1.9,0,2.4,1.7,2.4,2.7c0,0.2,0,0.4,0,0.5H118.4z M121.5,54.3c0-0.7-0.3-1.7-1.5-1.7
				c-1.1,0-1.5,1-1.6,1.7H121.5z"/>
			<path fill="#E7DB5A" d="M123.8,49.3h1.1v8.5h-1.1V49.3z"/>
			<path fill="#E7DB5A" d="M126.6,49.3h1.1v8.5h-1.1V49.3z"/>
			<path fill="#E7DB5A" d="M130.6,50.4c0,0.4-0.3,0.6-0.7,0.6c-0.4,0-0.6-0.3-0.6-0.6c0-0.4,0.3-0.7,0.7-0.7
				C130.4,49.7,130.6,50,130.6,50.4z M129.5,57.8V52h1.1v5.8H129.5z"/>
			<path fill="#E7DB5A" d="M132.3,53.9c0-0.7,0-1.3,0-1.9h0.9l0,1h0c0.4-0.7,1.1-1.1,2.1-1.1c1.4,0,2.5,1.2,2.5,3
				c0,2.1-1.3,3.1-2.6,3.1c-0.8,0-1.4-0.3-1.8-0.9h0v3.2h-1V53.9z M133.3,55.4c0,0.2,0,0.3,0,0.4c0.2,0.7,0.8,1.2,1.6,1.2
				c1.1,0,1.8-0.9,1.8-2.2c0-1.2-0.6-2.2-1.7-2.2c-0.7,0-1.4,0.5-1.6,1.3c0,0.1-0.1,0.3-0.1,0.4V55.4z"/>
			<path fill="#E7DB5A" d="M138.4,59.3c0.3-0.7,0.6-2,0.7-2.9l1.2-0.1c-0.3,1-0.8,2.4-1.2,2.9L138.4,59.3z M138.9,53
				c0-0.4,0.3-0.8,0.7-0.8c0.4,0,0.7,0.3,0.7,0.8c0,0.4-0.3,0.7-0.7,0.7C139.2,53.7,138.9,53.4,138.9,53z"/>
			<path fill="#E7DB5A" d="M144.9,49.6l-0.2,2.9H144l-0.2-2.9H144.9z M146.7,49.6l-0.2,2.9h-0.6l-0.2-2.9H146.7z"/>
			<path fill="#E7DB5A" d="M150.5,57.2c0-0.4,0.3-0.8,0.7-0.8c0.4,0,0.7,0.3,0.7,0.8c0,0.4-0.3,0.8-0.7,0.8
				C150.7,57.9,150.5,57.6,150.5,57.2z"/>
			<path fill="#F9F9F2" d="M157.5,58.8v-1.2c-0.7,0-1.4-0.2-1.8-0.5l0.3-0.8c0.4,0.3,1.1,0.5,1.7,0.5c0.9,0,1.4-0.5,1.4-1.2
				c0-0.7-0.5-1.1-1.4-1.4c-1.2-0.5-2-1-2-2.1c0-1,0.7-1.8,1.8-1.9V49h0.7v1.2c0.7,0,1.2,0.2,1.6,0.4l-0.3,0.8
				c-0.3-0.1-0.7-0.4-1.5-0.4c-0.9,0-1.3,0.6-1.3,1c0,0.6,0.4,0.9,1.5,1.4c1.2,0.5,1.9,1.1,1.9,2.2c0,0.9-0.7,1.8-1.9,2v1.2H157.5z"
				/>
			<path fill="#F9F9F2" d="M162.3,52l1.3,3.4c0.1,0.4,0.3,0.8,0.4,1.2h0c0.1-0.3,0.2-0.8,0.4-1.2l1.2-3.4h1.1l-1.6,4.1
				c-0.8,2-1.3,3-2,3.6c-0.5,0.5-1,0.6-1.3,0.7l-0.3-0.9c0.3-0.1,0.6-0.3,0.9-0.5c0.3-0.2,0.6-0.6,0.9-1.2c0-0.1,0.1-0.2,0.1-0.3
				s0-0.1-0.1-0.3l-2.1-5.3H162.3z"/>
			<path fill="#F9F9F2" d="M172.7,54.9c0,2.1-1.5,3.1-2.9,3.1c-1.6,0-2.8-1.2-2.8-3c0-1.9,1.3-3.1,2.9-3.1
				C171.5,51.9,172.7,53.1,172.7,54.9z M168.1,54.9c0,1.3,0.7,2.2,1.8,2.2c1,0,1.8-0.9,1.8-2.3c0-1-0.5-2.2-1.7-2.2
				C168.6,52.7,168.1,53.8,168.1,54.9z"/>
			<path fill="#F9F9F2" d="M178.9,56.2c0,0.6,0,1.1,0,1.6H178l-0.1-0.9h0c-0.3,0.5-0.9,1.1-1.9,1.1c-0.9,0-2-0.5-2-2.5V52h1.1v3.2
				c0,1.1,0.3,1.8,1.3,1.8c0.7,0,1.2-0.5,1.4-1c0.1-0.2,0.1-0.3,0.1-0.5V52h1.1V56.2z"/>
			<path fill="#F9F9F2" d="M180,59.3c0.3-0.7,0.6-2,0.7-2.9l1.2-0.1c-0.3,1-0.8,2.4-1.2,2.9L180,59.3z M180.5,53
				c0-0.4,0.3-0.8,0.7-0.8c0.4,0,0.7,0.3,0.7,0.8c0,0.4-0.3,0.7-0.7,0.7C180.8,53.7,180.5,53.4,180.5,53z"/>
			<path fill="#F9F9F2" d="M7.2,69.9l0-0.3c-0.1-0.6,0.1-1.4,0.7-2.1c0.5-0.6,0.8-1.1,0.8-1.6c0-0.6-0.4-1-1.1-1
				c-0.4,0-0.9,0.1-1.2,0.4l-0.3-0.8C6.5,64.2,7.2,64,7.8,64c1.4,0,2,0.9,2,1.8c0,0.8-0.5,1.4-1,2.1c-0.5,0.6-0.7,1.2-0.7,1.8l0,0.3
				H7.2z M6.9,71.6c0-0.4,0.3-0.8,0.7-0.8c0.4,0,0.7,0.3,0.7,0.8c0,0.4-0.3,0.7-0.7,0.7C7.2,72.3,6.9,72,6.9,71.6z"/>
			<path fill="#F9F9F2" d="M16.7,69.4l-5.6,2.9v-0.8l4.7-2.4v0l-4.7-2.4v-0.8l5.6,2.9V69.4z"/>
		</g>
	</g>
	<path display="inline" fill="#272822" d="M211.6,68.1"/>
</g>
<g id="Layer_2">
	<g>
		<path fill="#272822" d="M222.8,0H0.8C0.4,0,0,0.4,0,0.9l0,81c0,0.5,0.4,0.9,0.8,0.9h184.9c0.2,0,0.4,0.1,0.6,0.3l19.9,21.9
			c0.5,0.5,1.4,0.2,1.4-0.6V83.6c0-0.5,0.4-0.9,0.8-0.9h14.4c0.4,0,0.8-0.4,0.8-0.9v-81C223.6,0.4,223.2,0,222.8,0z"/>
		<g>
			<path fill="#F9F9F2" d="M6.3,11.1l5.6-2.9v0.8l-4.7,2.4v0l4.7,2.4v0.8l-5.6-2.9V11.1z"/>
			<path fill="#F9F9F2" d="M14.3,12.3l0-0.3c-0.1-0.6,0.1-1.4,0.7-2.1c0.5-0.6,0.8-1.1,0.8-1.6c0-0.6-0.4-1-1.1-1
				c-0.4,0-0.9,0.1-1.2,0.4l-0.3-0.8c0.4-0.3,1.1-0.5,1.7-0.5c1.4,0,2,0.9,2,1.8c0,0.8-0.5,1.4-1,2.1c-0.5,0.6-0.7,1.2-0.7,1.8
				l0,0.3H14.3z M14.1,14c0-0.4,0.3-0.8,0.7-0.8c0.4,0,0.7,0.3,0.7,0.8c0,0.4-0.3,0.7-0.7,0.7C14.4,14.7,14.1,14.4,14.1,14z"/>
			<path fill="#F9F9F2" d="M18.4,10.7c0-0.7,0-1.3,0-1.9h0.9l0,1h0c0.4-0.7,1.1-1.1,2.1-1.1c1.4,0,2.5,1.2,2.5,3
				c0,2.1-1.3,3.1-2.6,3.1c-0.8,0-1.4-0.3-1.8-0.9h0V17h-1V10.7z M19.4,12.2c0,0.2,0,0.3,0,0.4c0.2,0.7,0.8,1.2,1.6,1.2
				c1.1,0,1.8-0.9,1.8-2.2c0-1.2-0.6-2.2-1.7-2.2c-0.7,0-1.4,0.5-1.6,1.3c0,0.1-0.1,0.3-0.1,0.4V12.2z"/>
			<path fill="#F9F9F2" d="M25.2,6.1h1.1v3.6h0C26.5,9.4,26.7,9.2,27,9c0.3-0.2,0.7-0.3,1.1-0.3c0.8,0,2,0.5,2,2.5v3.5h-1.1v-3.3
				c0-0.9-0.3-1.7-1.3-1.7c-0.7,0-1.2,0.5-1.4,1.1c-0.1,0.1-0.1,0.3-0.1,0.5v3.5h-1.1V6.1z"/>
			<path fill="#F9F9F2" d="M31.9,10.7c0-0.7,0-1.3,0-1.9h0.9l0,1h0c0.4-0.7,1.1-1.1,2.1-1.1c1.4,0,2.5,1.2,2.5,3
				c0,2.1-1.3,3.1-2.6,3.1c-0.8,0-1.4-0.3-1.8-0.9h0V17h-1V10.7z M32.9,12.2c0,0.2,0,0.3,0,0.4c0.2,0.7,0.8,1.2,1.6,1.2
				c1.1,0,1.8-0.9,1.8-2.2c0-1.2-0.6-2.2-1.7-2.2c-0.7,0-1.4,0.5-1.6,1.3c0,0.1-0.1,0.3-0.1,0.4V12.2z"/>
			<path fill="#F9F9F2" d="M8.1,30v-1.2c-0.7,0-1.4-0.2-1.8-0.5l0.3-0.8C7,27.8,7.6,28,8.3,28c0.9,0,1.4-0.5,1.4-1.2
				c0-0.7-0.5-1.1-1.4-1.4c-1.2-0.5-2-1-2-2.1c0-1,0.7-1.8,1.8-1.9v-1.2h0.7v1.2c0.7,0,1.2,0.2,1.6,0.4l-0.3,0.8
				c-0.3-0.1-0.7-0.4-1.5-0.4c-0.9,0-1.3,0.6-1.3,1c0,0.6,0.4,0.9,1.5,1.4c1.2,0.5,1.9,1.1,1.9,2.2c0,0.9-0.7,1.8-1.9,2V30H8.1z"/>
			<path fill="#F9F9F2" d="M12.9,23.2l1.3,3.4c0.1,0.4,0.3,0.8,0.4,1.2h0c0.1-0.3,0.2-0.8,0.4-1.2l1.2-3.4h1.1l-1.6,4.1
				c-0.8,2-1.3,3-2,3.6c-0.5,0.5-1,0.6-1.3,0.7l-0.3-0.9c0.3-0.1,0.6-0.3,0.9-0.5c0.3-0.2,0.6-0.6,0.9-1.2c0-0.1,0.1-0.2,0.1-0.3
				c0-0.1,0-0.1-0.1-0.3l-2.1-5.3H12.9z"/>
			<path fill="#F9F9F2" d="M23.3,26.1c0,2.1-1.5,3.1-2.9,3.1c-1.6,0-2.8-1.2-2.8-3c0-1.9,1.3-3.1,2.9-3.1
				C22.2,23.1,23.3,24.3,23.3,26.1z M18.7,26.1c0,1.3,0.7,2.2,1.8,2.2c1,0,1.8-0.9,1.8-2.3c0-1-0.5-2.2-1.7-2.2
				C19.2,23.9,18.7,25,18.7,26.1z"/>
			<path fill="#F9F9F2" d="M29.5,27.4c0,0.6,0,1.1,0,1.6h-0.9l-0.1-0.9h0c-0.3,0.5-0.9,1.1-1.9,1.1c-0.9,0-2-0.5-2-2.5v-3.4h1.1v3.2
				c0,1.1,0.3,1.8,1.3,1.8c0.7,0,1.2-0.5,1.4-1c0.1-0.2,0.1-0.3,0.1-0.5v-3.6h1.1V27.4z"/>
			<path fill="#EE2E73" d="M33.4,25v-0.7h6.2V25H33.4z M33.4,27.3v-0.7h6.2v0.7H33.4z"/>
			<path fill="#E7DB5A" d="M44.3,20.8l-0.2,2.9h-0.6l-0.2-2.9H44.3z M46.1,20.8l-0.2,2.9h-0.6L45,20.8H46.1z"/>
			<path fill="#E7DB5A" d="M51.6,28.8c-0.3,0.1-0.9,0.3-1.7,0.3c-1.8,0-2.9-1.2-2.9-3c0-1.8,1.2-3.1,3.1-3.1c0.6,0,1.2,0.2,1.5,0.3
				l-0.2,0.8c-0.3-0.1-0.6-0.3-1.2-0.3c-1.3,0-2.1,1-2.1,2.2c0,1.3,0.9,2.2,2,2.2c0.6,0,1-0.2,1.3-0.3L51.6,28.8z"/>
			<path fill="#E7DB5A" d="M52.8,20.5h1.1v3.6h0c0.2-0.3,0.4-0.6,0.8-0.7c0.3-0.2,0.7-0.3,1.1-0.3c0.8,0,2,0.5,2,2.5V29h-1.1v-3.3
				c0-0.9-0.3-1.7-1.3-1.7c-0.7,0-1.2,0.5-1.4,1.1c-0.1,0.1-0.1,0.3-0.1,0.5V29h-1.1V20.5z"/>
			<path fill="#E7DB5A" d="M60.1,26.3c0,1.4,0.9,2,2,2c0.8,0,1.2-0.1,1.6-0.3l0.2,0.8c-0.4,0.2-1,0.4-1.9,0.4
				c-1.8,0-2.9-1.2-2.9-2.9s1-3.1,2.7-3.1c1.9,0,2.4,1.7,2.4,2.7c0,0.2,0,0.4,0,0.5H60.1z M63.2,25.5c0-0.7-0.3-1.7-1.5-1.7
				c-1.1,0-1.5,1-1.6,1.7H63.2z"/>
			<path fill="#E7DB5A" d="M69.6,28.8c-0.3,0.1-0.9,0.3-1.7,0.3c-1.8,0-2.9-1.2-2.9-3c0-1.8,1.2-3.1,3.1-3.1c0.6,0,1.2,0.2,1.5,0.3
				l-0.2,0.8c-0.3-0.1-0.6-0.3-1.2-0.3c-1.3,0-2.1,1-2.1,2.2c0,1.3,0.9,2.2,2,2.2c0.6,0,1-0.2,1.3-0.3L69.6,28.8z"/>
			<path fill="#E7DB5A" d="M71.9,25.9L71.9,25.9c0.2-0.2,0.4-0.5,0.5-0.7l1.7-2h1.3l-2.2,2.4l2.6,3.4h-1.3l-2-2.8l-0.5,0.6V29h-1
				v-8.5h1V25.9z"/>
			<path fill="#E7DB5A" d="M80.2,21.6c0,0.4-0.3,0.6-0.7,0.6c-0.4,0-0.6-0.3-0.6-0.6c0-0.4,0.3-0.7,0.7-0.7
				C80,20.9,80.2,21.2,80.2,21.6z M79,29v-5.8h1.1V29H79z"/>
			<path fill="#E7DB5A" d="M83.1,21.5v1.7h1.5V24h-1.5v3.1c0,0.7,0.2,1.1,0.8,1.1c0.3,0,0.5,0,0.6-0.1l0,0.8
				c-0.2,0.1-0.5,0.1-0.9,0.1c-0.5,0-0.9-0.2-1.1-0.4c-0.3-0.3-0.4-0.8-0.4-1.5V24h-0.9v-0.8h0.9v-1.4L83.1,21.5z"/>
			<path fill="#E7DB5A" d="M93.6,26.1c0,2.1-1.5,3.1-2.9,3.1c-1.6,0-2.8-1.2-2.8-3c0-1.9,1.3-3.1,2.9-3.1
				C92.5,23.1,93.6,24.3,93.6,26.1z M89,26.1c0,1.3,0.7,2.2,1.8,2.2c1,0,1.8-0.9,1.8-2.3c0-1-0.5-2.2-1.7-2.2
				C89.5,23.9,89,25,89,26.1z"/>
			<path fill="#E7DB5A" d="M99.8,27.4c0,0.6,0,1.1,0,1.6h-0.9l-0.1-0.9h0c-0.3,0.5-0.9,1.1-1.9,1.1c-0.9,0-2-0.5-2-2.5v-3.4H96v3.2
				c0,1.1,0.3,1.8,1.3,1.8c0.7,0,1.2-0.5,1.4-1c0.1-0.2,0.1-0.3,0.1-0.5v-3.6h1.1V27.4z"/>
			<path fill="#E7DB5A" d="M102.8,21.5v1.7h1.5V24h-1.5v3.1c0,0.7,0.2,1.1,0.8,1.1c0.3,0,0.5,0,0.6-0.1l0,0.8
				c-0.2,0.1-0.5,0.1-0.9,0.1c-0.5,0-0.9-0.2-1.1-0.4c-0.3-0.3-0.4-0.8-0.4-1.5V24h-0.9v-0.8h0.9v-1.4L102.8,21.5z"/>
			<path fill="#E7DB5A" d="M106.3,20.8l-0.2,2.9h-0.6l-0.2-2.9H106.3z M108.1,20.8l-0.2,2.9h-0.6l-0.2-2.9H108.1z"/>
			<path fill="#E7DB5A" d="M108.9,30.5c0.3-0.7,0.6-2,0.7-2.9l1.2-0.1c-0.3,1-0.8,2.4-1.2,2.9L108.9,30.5z M109.4,24.2
				c0-0.4,0.3-0.8,0.7-0.8c0.4,0,0.7,0.3,0.7,0.8c0,0.4-0.3,0.7-0.7,0.7C109.7,24.9,109.4,24.6,109.4,24.2z"/>
			<path fill="#71CEE6" d="M7,55.1c0,1.4,0.9,2,2,2c0.8,0,1.2-0.1,1.6-0.3l0.2,0.8c-0.4,0.2-1,0.4-1.9,0.4c-1.8,0-2.9-1.2-2.9-2.9
				c0-1.8,1-3.1,2.7-3.1c1.9,0,2.4,1.7,2.4,2.7c0,0.2,0,0.4,0,0.5H7z M10,54.3c0-0.7-0.3-1.7-1.5-1.7c-1.1,0-1.5,1-1.6,1.7H10z"/>
			<path fill="#71CEE6" d="M16.5,57.6c-0.3,0.1-0.9,0.3-1.7,0.3c-1.8,0-2.9-1.2-2.9-3c0-1.8,1.2-3.1,3.1-3.1c0.6,0,1.2,0.2,1.5,0.3
				L16.3,53c-0.3-0.1-0.6-0.3-1.2-0.3c-1.3,0-2.1,1-2.1,2.2c0,1.3,0.9,2.2,2,2.2c0.6,0,1-0.2,1.3-0.3L16.5,57.6z"/>
			<path fill="#71CEE6" d="M17.8,49.3h1.1v3.6h0c0.2-0.3,0.4-0.6,0.8-0.7c0.3-0.2,0.7-0.3,1.1-0.3c0.8,0,2,0.5,2,2.5v3.5h-1.1v-3.3
				c0-0.9-0.3-1.7-1.3-1.7c-0.7,0-1.2,0.5-1.4,1.1c-0.1,0.1-0.1,0.3-0.1,0.5v3.5h-1.1V49.3z"/>
			<path fill="#71CEE6" d="M29.7,54.9c0,2.1-1.5,3.1-2.9,3.1c-1.6,0-2.8-1.2-2.8-3c0-1.9,1.3-3.1,2.9-3.1
				C28.5,51.9,29.7,53.1,29.7,54.9z M25.1,54.9c0,1.3,0.7,2.2,1.8,2.2c1,0,1.8-0.9,1.8-2.3c0-1-0.5-2.2-1.7-2.2
				C25.6,52.7,25.1,53.8,25.1,54.9z"/>
			<path fill="#E7DB5A" d="M34.3,49.6l-0.2,2.9h-0.6l-0.2-2.9H34.3z M36.1,49.6l-0.2,2.9h-0.6l-0.2-2.9H36.1z"/>
			<path fill="#E7DB5A" d="M39.5,57.8v-3.4l-2.6-4.7h1.2l1.1,2.2c0.3,0.6,0.6,1.1,0.8,1.7h0c0.2-0.5,0.5-1.1,0.8-1.7l1.2-2.2h1.2
				l-2.7,4.6v3.4H39.5z"/>
			<path fill="#E7DB5A" d="M43.8,55.1c0,1.4,0.9,2,2,2c0.8,0,1.2-0.1,1.6-0.3l0.2,0.8c-0.4,0.2-1,0.4-1.9,0.4
				c-1.8,0-2.9-1.2-2.9-2.9c0-1.8,1-3.1,2.7-3.1c1.9,0,2.4,1.7,2.4,2.7c0,0.2,0,0.4,0,0.5H43.8z M46.9,54.3c0-0.7-0.3-1.7-1.5-1.7
				c-1.1,0-1.5,1-1.6,1.7H46.9z"/>
			<path fill="#E7DB5A" d="M49.1,56.7c0.3,0.2,0.9,0.4,1.4,0.4c0.8,0,1.1-0.4,1.1-0.9c0-0.5-0.3-0.8-1.1-1.1c-1-0.4-1.5-0.9-1.5-1.6
				c0-0.9,0.8-1.7,2-1.7c0.6,0,1.1,0.2,1.4,0.4L52.1,53c-0.2-0.1-0.6-0.3-1.2-0.3c-0.6,0-1,0.4-1,0.8c0,0.5,0.3,0.7,1.1,1
				c1,0.4,1.5,0.9,1.5,1.8c0,1-0.8,1.7-2.2,1.7c-0.6,0-1.2-0.2-1.6-0.4L49.1,56.7z"/>
			<path fill="#E7DB5A" d="M53.2,59.3c0.3-0.7,0.6-2,0.7-2.9l1.2-0.1c-0.3,1-0.8,2.4-1.1,2.9L53.2,59.3z"/>
			<path fill="#E7DB5A" d="M58.2,59.3c0.3-0.7,0.6-2,0.7-2.9l1.2-0.1c-0.3,1-0.8,2.4-1.2,2.9L58.2,59.3z M58.7,53
				c0-0.4,0.3-0.8,0.7-0.8c0.4,0,0.7,0.3,0.7,0.8c0,0.4-0.3,0.7-0.7,0.7C59,53.7,58.7,53.4,58.7,53z"/>
			<path fill="#E7DB5A" d="M64.7,49.6l-0.2,2.9h-0.6l-0.2-2.9H64.7z M66.5,49.6l-0.2,2.9h-0.6l-0.2-2.9H66.5z"/>
			<path fill="#E7DB5A" d="M70.2,57.2c0-0.4,0.3-0.8,0.7-0.8s0.7,0.3,0.7,0.8c0,0.4-0.3,0.8-0.7,0.8C70.5,57.9,70.2,57.6,70.2,57.2z
				"/>
			<path fill="#F9F9F2" d="M77.2,58.8v-1.2c-0.7,0-1.4-0.2-1.8-0.5l0.3-0.8c0.4,0.3,1.1,0.5,1.7,0.5c0.9,0,1.4-0.5,1.4-1.2
				c0-0.7-0.5-1.1-1.4-1.4c-1.2-0.5-2-1-2-2.1c0-1,0.7-1.8,1.8-1.9V49h0.7v1.2c0.7,0,1.2,0.2,1.6,0.4l-0.3,0.8
				c-0.3-0.1-0.7-0.4-1.5-0.4c-0.9,0-1.3,0.6-1.3,1c0,0.6,0.4,0.9,1.5,1.4c1.2,0.5,1.9,1.1,1.9,2.2c0,0.9-0.7,1.8-1.9,2v1.2H77.2z"
				/>
			<path fill="#F9F9F2" d="M82,52l1.3,3.4c0.1,0.4,0.3,0.8,0.4,1.2h0c0.1-0.3,0.2-0.8,0.4-1.2l1.2-3.4h1.1l-1.6,4.1
				c-0.8,2-1.3,3-2,3.6c-0.5,0.5-1,0.6-1.3,0.7l-0.3-0.9c0.3-0.1,0.6-0.3,0.9-0.5c0.3-0.2,0.6-0.6,0.9-1.2c0-0.1,0.1-0.2,0.1-0.3
				c0-0.1,0-0.1-0.1-0.3L80.9,52H82z"/>
			<path fill="#F9F9F2" d="M92.4,54.9c0,2.1-1.5,3.1-2.9,3.1c-1.6,0-2.8-1.2-2.8-3c0-1.9,1.3-3.1,2.9-3.1
				C91.3,51.9,92.4,53.1,92.4,54.9z M87.8,54.9c0,1.3,0.7,2.2,1.8,2.2c1,0,1.8-0.9,1.8-2.3c0-1-0.5-2.2-1.7-2.2
				C88.4,52.7,87.8,53.8,87.8,54.9z"/>
			<path fill="#F9F9F2" d="M98.6,56.2c0,0.6,0,1.1,0,1.6h-0.9l-0.1-0.9h0c-0.3,0.5-0.9,1.1-1.9,1.1c-0.9,0-2-0.5-2-2.5V52h1.1v3.2
				c0,1.1,0.3,1.8,1.3,1.8c0.7,0,1.2-0.5,1.4-1c0.1-0.2,0.1-0.3,0.1-0.5V52h1.1V56.2z"/>
			<path fill="#F9F9F2" d="M102.7,57.2c0-0.4,0.3-0.8,0.7-0.8s0.7,0.3,0.7,0.8c0,0.4-0.3,0.8-0.7,0.8
				C103,57.9,102.7,57.6,102.7,57.2z"/>
			<path fill="#E7DB5A" d="M106.5,52.5c0.3-1,0.8-2.3,1.1-2.9l0.7-0.1c-0.3,0.7-0.6,1.9-0.7,2.8L106.5,52.5z M108.3,52.5
				c0.3-1,0.8-2.3,1.1-2.9l0.7-0.1c-0.3,0.7-0.6,1.9-0.7,2.8L108.3,52.5z"/>
			<path fill="#E7DB5A" d="M111,57.2c0-0.4,0.3-0.7,0.7-0.7c0.4,0,0.7,0.3,0.7,0.7c0,0.4-0.3,0.7-0.7,0.7
				C111.3,57.9,111,57.6,111,57.2z M111.3,55.5l-0.2-5.8h1.2l-0.2,5.8H111.3z"/>
			<path fill="#E7DB5A" d="M115.3,49.6c-0.3,1-0.8,2.3-1.1,2.8l-0.7,0.1c0.3-0.7,0.6-2,0.7-2.8L115.3,49.6z M117.1,49.6
				c-0.3,1-0.8,2.3-1.1,2.8l-0.7,0.1c0.3-0.7,0.6-2,0.7-2.8L117.1,49.6z"/>
			<path fill="#F9F9F2" d="M117.6,59.3c0.3-0.7,0.6-2,0.7-2.9l1.2-0.1c-0.3,1-0.8,2.4-1.2,2.9L117.6,59.3z M118.1,53
				c0-0.4,0.3-0.8,0.7-0.8c0.4,0,0.7,0.3,0.7,0.8c0,0.4-0.3,0.7-0.7,0.7C118.4,53.7,118.1,53.4,118.1,53z"/>
			<path fill="#F9F9F2" d="M7.2,69.9l0-0.3c-0.1-0.6,0.1-1.4,0.7-2.1c0.5-0.6,0.8-1.1,0.8-1.6c0-0.6-0.4-1-1.1-1
				c-0.4,0-0.9,0.1-1.2,0.4l-0.3-0.8C6.5,64.2,7.2,64,7.8,64c1.4,0,2,0.9,2,1.8c0,0.8-0.5,1.4-1,2.1c-0.5,0.6-0.7,1.2-0.7,1.8l0,0.3
				H7.2z M6.9,71.6c0-0.4,0.3-0.8,0.7-0.8c0.4,0,0.7,0.3,0.7,0.8c0,0.4-0.3,0.7-0.7,0.7C7.2,72.3,6.9,72,6.9,71.6z"/>
			<path fill="#F9F9F2" d="M16.7,69.4l-5.6,2.9v-0.8l4.7-2.4v0l-4.7-2.4v-0.8l5.6,2.9V69.4z"/>
		</g>
	</g>
	<path fill="#272822" d="M308.6,15.1"/>
	<g>
	</g>
	<g>
	</g>
	<g>
	</g>
	<g>
	</g>
	<g>
	</g>
	<g>
	</g>
</g>
</svg>
