<?xml version="1.0" encoding="utf-8"?>
<!-- Generator: Adobe Illustrator 18.1.1, SVG Export Plug-In . SVG Version: 6.00 Build 0)  -->
<svg version="1.1" id="Layer_1" xmlns="http://www.w3.org/2000/svg" xmlns:xlink="http://www.w3.org/1999/xlink" x="0px" y="0px"
	 viewBox="-8 356.1 80 80" enable-background="new -8 356.1 80 80" xml:space="preserve">
<path fill="#FFFFFF" d="M9.8,427.9V391h-4v-8.8h4v-8.8c0-7,3.4-10.5,10.2-10.5h8.3v8.8c-3.5,0-5.3,1.5-5.3,4.4v6.1h5.3v8.8H23v36.9
	H9.8z"/>
<path fill="#FFFFFF" d="M46.4,400v14.4c0,3.5,0,5.1,3,5.1c2,0,5.3-0.1,5.3-0.1l0.4,7.5c0,0-4.7,1.1-7.2,1.1c-8.5,0-11-3.2-11-13.4
	V400h-4.1v-8H37v-9.8h9.4v9.8H55v8H46.4z"/>
<g>
</g>
</svg>
