<?xml version="1.0" encoding="utf-8"?>
<!-- Generator: Adobe Illustrator 18.1.1, SVG Export Plug-In . SVG Version: 6.00 Build 0)  -->
<svg version="1.1" id="Layer_1" xmlns="http://www.w3.org/2000/svg" xmlns:xlink="http://www.w3.org/1999/xlink" x="0px" y="0px"
	 viewBox="-8 356.1 80 80" enable-background="new -8 356.1 80 80" xml:space="preserve">
<g enable-background="new    ">
	<path fill="#4AC5DE" d="M9.8,427.9V391h-4v-8.8h4v-8.8c0-7,3.4-10.5,10.2-10.5h8.3v8.8c-3.5,0-5.3,1.5-5.3,4.4v6.1h5.3v8.8H23v36.9
		H9.8z"/>
	<path fill="#5C2B7F" d="M50,395.3v17.3c0,4.2,0,6.2,3.5,6.2c2.4,0,6.4-0.2,6.4-0.2l0.5,9c0,0-5.6,1.3-8.6,1.3
		c-10.2,0-13.2-3.9-13.2-16v-17.5h-5v-9.6h5V374H50v11.7h10.4v9.6H50z"/>
</g>
<g>
</g>
</svg>
